<?xml version="1.0" encoding="utf-8"?>
<!-- Generator: Adobe Illustrator 21.1.0, SVG Export Plug-In . SVG Version: 6.00 Build 0)  -->
<svg version="1.1" id="Layer_1" xmlns="http://www.w3.org/2000/svg" xmlns:xlink="http://www.w3.org/1999/xlink" x="0px" y="0px"
	 viewBox="0 0 6437 2037" style="enable-background:new 0 0 6437 2037;" xml:space="preserve">
<style type="text/css">
	.st0{fill:#C2D3CB;}
	.st1{fill:#E7DBD3;}
	.st2{fill:#E2EDE8;}
	.st3{fill:#FFFFFF;}
	.st4{fill:#403D33;}
	.st5{fill:#726A56;}
	.st6{fill:#5E5746;}
	.st7{fill:#DD3114;}
	.st8{fill:#FF4217;}
	.st9{fill:#D8AD79;}
	.st10{fill:#B78B5A;}
	.st11{fill:#9B7550;}
	.st12{fill:#A1AF4A;}
	.st13{fill:#929B42;}
	.st14{fill:#939B48;stroke:#808334;stroke-width:12.726;stroke-miterlimit:10;}
	.st15{fill:#808334;}
	.st16{fill:none;stroke:#808334;stroke-width:12.726;stroke-miterlimit:10;}
	.st17{fill:none;stroke:#FFFFFF;stroke-width:12.726;stroke-linecap:round;stroke-linejoin:round;stroke-miterlimit:10;}
	.st18{fill:#939B48;stroke:#808334;stroke-width:12.9843;stroke-miterlimit:10;}
	.st19{fill:none;stroke:#808334;stroke-width:12.9843;stroke-miterlimit:10;}
	.st20{fill:none;stroke:#FFFFFF;stroke-width:12.9843;stroke-linecap:round;stroke-linejoin:round;stroke-miterlimit:10;}
	.st21{fill:#939B48;stroke:#808334;stroke-width:14.427;stroke-miterlimit:10;}
	.st22{fill:none;stroke:#808334;stroke-width:14.427;stroke-miterlimit:10;}
	.st23{fill:none;stroke:#FFFFFF;stroke-width:14.427;stroke-linecap:round;stroke-linejoin:round;stroke-miterlimit:10;}
	.st24{fill:#FFAE5C;}
</style>
<g>
	<g>
		<path class="st0" d="M6177.1,81c0.5-5.6,0.9-11.2,1.4-16.8c-0.3,0.1-0.5,0.2-0.8,0.2C6177.5,69.9,6177.2,75.5,6177.1,81
			C6177,81,6177,81,6177.1,81z"/>
		<path class="st1" d="M6430.3,620.8c-2.7,8.1-5.4,16.2-8.2,24.3c-0.5,1.6-1,3.1-1.6,4.6c-1.4,3.8-2.7,7.5-3.9,11.3
			c-1.4,3.8-4.3,6.1-7.7,7.1c-10.5,11.7-25.7,21.5-43.1,27.5c-10.5,3.7-21.5,6.3-32.9,8.1c-2.8,1-5.8,1.4-8.7,1.2
			c-25.3,3.1-52.2,2.8-78.5,1.4c-9,7-18.1,13.9-27.4,20.6c-17.1,12.5-37.7,23.6-53.8,36.9c-1.5,0.9-3,1.9-4.7,2.8
			c-10.5,6.3-21.3,12.5-32,18.5c-38.3,21.1-78.5,38-119.4,55.3c-2.4,0.8-4.7,1.6-7.1,2.3c-9,2.8-18.1,5.5-27.2,8
			c-22.2,6-44.6,10.4-67.4,14.6c-11,1.1-22,1.8-33.2,2.3c-9.1,0.3-18.2,0.4-27.2,0.3c-2.4,0-4.8-0.1-7.2-0.2
			c-28.8-6.7-60.9-8.1-89.9-14.7c-14.7-3.4-29.3-7.1-43.8-11.1c-9.1-2.5-18.1-5.3-27.2-7.8c-0.4-0.1-0.8-0.2-1.1-0.3
			c-2.2-0.7-4.4-1.4-6.6-2.1c-74-23.5-147.4-47.4-222.9-67.8c-14.7-4-29.5-8-44.2-12c-9.2-2.6-18.4-5.1-27.6-7.8
			c-1.3-0.3-3.8-1.1-6.7-2c-6.2-2-17.7-5.6-18-5.7c-7.2-2.4-14.4-4.9-21.5-7.5c-18-6.4-35.7-13.3-52.9-20.9
			c-38-16.7-76.1-33.2-114.1-49.7c-1.1-3.4-2.3-6.8-3.3-10.2c-3-10.2-5.4-20.5-8.4-30.8c-0.3-0.8-0.4-1.5-0.6-2.2
			c-1-5.6-2-11.1-2.9-16.7c-0.9-5.7-1.8-11.4-2.5-17.1c-24.4-6.6-46.9-16.6-63.5-33.8c-37.9-39.1-33.3-91.7-8.7-137.2
			c-0.1-6.4,0.1-12.7,0.9-18.9c4.9-41.8,21.2-81.9,36.2-121.9c16-42.3,32.4-84.2,49.4-126.3c19-46.9,38.5-94.2,58.5-140.2H0.7
			v1361.5c22.8-17.6,47.1-34.7,71.8-51.2c10.3-6.9,21.3-13.3,31.4-20.4c2.5-1.6,5.1-3.1,7.6-4.7c23.6-14.1,47.6-27.7,72.2-40.8
			c47.9-25.5,97.4-49.1,148.6-70.3c23.4-9.7,50.2-17,72.8-27.8c2-0.7,4.1-1.4,6.2-2c13.9-4.4,28-8.7,42.1-12.7
			c49.8-14.1,100.2-23.2,151.6-32.5c2.9-0.3,5.8-0.6,8.7-0.9c10.9-1,21.9-1.8,32.8-2.3c26.5-1.4,52.7-0.9,79.2-0.1
			c12.4,1.4,24.8,3.2,37.2,5.3c10.1,1.8,20.1,3.8,30,6.1c2.7,0.6,5.3,1.3,7.9,1.9c28.9,14.1,63.6,23.1,93,37.3
			c14.8,7.2,29.4,14.7,43.8,22.4c9,4.9,17.9,10,26.9,14.9c0.4,0.2,0.6,0.4,1,0.6c2.2,1.3,4.3,2.5,6.5,3.8
			c72.1,43.1,143.5,86.4,218.4,126.5c14.7,7.8,29.3,15.6,43.8,23.5c9.1,5,18.2,9.9,27.2,15c1.1,0.7,3.8,2.1,6.6,3.7
			c6,3.6,17.2,10.3,17.6,10.5c7,4.3,13.9,8.7,20.8,13.2c17.2,11.2,34.1,22.9,50,35.3c35.3,27.1,70.8,54.2,106.1,81.2
			c-0.1,4-0.1,8-0.3,12c-0.5,11.9-1.8,23.7-2.4,35.6c0,0.9-0.1,1.8-0.1,2.6c-1,6.3-1.9,12.6-3,18.9c-4.9,27.5-11.5,54.9-19.9,81.9
			c-4.2,13.6-8.9,27.1-14.1,40.4c-2.8,7.2-8.5,16.4-12.4,25.2c-1.4,0.6-3.5,4.8-4.2,13.4c-2.9,5.4-5.8,10.8-9,16.2
			c-8,13.8-16.6,27.4-26,40.7c-8.2,11.8-17.1,23.4-26.5,34.6c-0.9,1-1.8,2.1-2.8,3.2c3-4.6,1.4-6-7.6,8
			c-22.4,20.1-45.3,38.6-70.7,56.3c-19.1,9.5-15.6,9.1-9.4,6c-1.1,0.7-2.2,1.3-3.3,2c-12.8,7.4-26,14.5-39.4,21.3
			c-28.2,14.4-57.5,27.4-87.6,39c0,0-3,1.3-6.6,2.8c-10.8,15.5-22.7,30.3-35.6,44.4c-2.8,3.6-5.6,7.2-8.5,10.7
			c-4.4,5.4-9,10.6-13.8,15.8H6445l-14.8-1410.2L6430.3,620.8L6430.3,620.8z"/>
		<path class="st2" d="M606.2,1346.8c28.6,1.7,57.2,3.3,85.9,5C663.5,1349.3,634.9,1347.7,606.2,1346.8z"/>
		<path class="st2" d="M1163.5,1628.9c16.1-13.1,30.7-27.3,43.1-42.7c20.1-25,34.1-52.4,42.9-81c-26.1-4.2-50.4-12.7-71.7-25.1
			c-2.7,5-5.2,10.1-8.5,14.9c-6.3,9.5-14.3,18.4-23.3,26.4c-10.3,9.2-21.3,16.1-33.4,21.4c-2.8,9.6-6.6,19.1-11.3,28.3
			c18.6,21.4,33.9,44.5,46,68.6c2-0.9,4.1-1.9,6-2.9C1156.5,1634.4,1159.9,1631.9,1163.5,1628.9z"/>
		<path class="st3" d="M153.4,1343.1c54.5-22.6,121.6-32,180.5-40.3c67.4-9.5,135.7-14.6,204-15.1c125.3-0.9,251,12.6,370.5,42.7
			c88.4,22.3,183,61.4,204.7,139.3c4.6,16.4,5.8,32.7,4.2,48.6c6.6-6.1,12.7-12.3,17.7-18.6c8.9-10.8,14.1-23.1,20.6-34.7
			c-3.2-2.6-6.3-5.3-9.4-8.1c-11.5-10.8-3.3-24.6,13.8-26.3c31.2-3.1,61.6,6.9,90.1,19.8c21,3.7,42.1,7.5,62.9,11.4
			c1.1,0.2,2.2,0.5,3.2,0.9h0.1c0.5,0.2,1,0.4,1.4,0.6c7.9,3.1,13.4,10,10,16.9c-2.8,5.7-5.6,11.3-8.5,17
			c-4.6,9.1-16.7,14.6-28.6,9.2c-0.9-0.4-1.8-0.8-2.7-1.2c-1.4,0.8-3,1.5-4.7,1.9c-10.5,34.2-28.2,66-54.2,95.1
			c-5.7,6.3-12.3,14-19.9,21.7c-0.3,0.9-0.5,1.8-1.1,2.6c-8.4,12.9-21.3,21.3-36.4,29.2c-4.4,2.3-9.2,4.8-14.4,7.1
			c25.7,63.8,29.3,133.4,8.1,199.4c-11.4,35.4-91.7,166.9-112.4,196.8c3.7-1.5,48-56,48-56c30.1-11.6,81.8-70.5,110.1-84.8
			c13.4-6.8,26.5-13.9,39.4-21.3c1.1-0.6,2.2-1.3,3.3-2c-6.2,3.1-9.6,3.5,9.4-6c25.3-17.8,48.3-36.2,70.7-56.3
			c9-13.9,10.8-12.6,7.6-8c1-1.1,2-2.1,2.8-3.2c9.4-11.3,18.2-22.8,26.5-34.6c9.4-13.3,18-26.9,26-40.7c3-5.3,6-10.8,9-16.2
			c0.6-8.5,2.9-12.7,4.2-13.4c4.1-8.8,9.8-18,12.4-25.2c5.1-13.4,9.8-26.9,14.1-40.4c8.4-27,14.9-54.4,19.9-81.9
			c1.1-6.3,2-12.6,3-18.9c0-0.8,0.1-1.6,0.1-2.6c0.8-11.9,2-23.7,2.4-35.6c0.1-4,0.1-8,0.3-12c-35.5-27.1-70.9-54.1-106.1-81.2
			c-16-12.3-32.8-24-50-35.3c-6.8-4.5-13.8-8.9-20.8-13.2c-0.3-0.2-11.5-6.9-17.6-10.5c-2.8-1.6-5.3-3-6.6-3.7c-9-5-18.1-10-27.2-15
			c-14.6-7.9-29.3-15.7-43.8-23.5c-75-40.1-146.3-83.4-218.4-126.5c-2.2-1.3-4.3-2.5-6.5-3.8c-0.4-0.2-0.6-0.4-1-0.6
			c-9-4.9-17.9-10-26.9-14.9c-14.3-7.7-28.9-15.2-43.8-22.4c-29.3-14.1-64.1-23.1-93-37.3c-2.7-0.6-5.2-1.3-7.9-1.9
			c-9.9-2.3-19.9-4.3-30-6.1c-12.3-2.2-24.7-3.9-37.2-5.3c-26.5-0.8-52.7-1.2-79.2,0.1c-11,0.6-21.9,1.4-32.8,2.3
			c-2.9,0.3-5.8,0.6-8.7,0.9c-51.4,9.3-101.8,18.4-151.6,32.5c-14.2,4-28.1,8.3-42.1,12.7c-2,0.7-4.1,1.3-6.2,2
			c-22.7,10.8-49.4,18.1-72.8,27.8c-51.2,21.2-100.7,44.7-148.6,70.3c-24.6,13.1-48.6,26.7-72.2,40.8c-2.5,1.5-5.2,3.1-7.7,4.7
			c-10.1,7-21,13.5-31.4,20.4c-24.7,16.5-49,33.5-71.8,51.2v38.3c2.5-2,5.4-3.9,8.5-5.8C47,1374,101.7,1350.8,153.4,1343.1z"/>
		<path class="st4" d="M1208.6,1626.7c0.5-0.9,0.9-1.8,1.1-2.6c7.5-7.7,14.2-15.3,19.9-21.7c26-29.1,43.7-60.9,54.2-95.1
			c1.8-0.4,3.3-1.1,4.7-1.9c0.9,0.4,1.8,0.8,2.7,1.2c11.9,5.4,24.1-0.1,28.6-9.2c2.9-5.6,5.7-11.3,8.5-17c3.4-7-2.2-13.8-10-16.9
			c-0.5-0.2-0.9-0.4-1.4-0.6h-0.1c-1-0.3-2-0.6-3.2-0.9c-21-3.9-41.9-7.7-62.9-11.4c-28.6-12.9-58.9-22.9-90.1-19.8
			c-17.1,1.7-25.3,15.5-13.8,26.3c3,2.8,6.2,5.5,9.4,8.1c-6.7,11.6-11.9,23.9-20.6,34.7c-5.2,6.3-11.1,12.5-17.7,18.6
			c-0.9,8.3-2.4,16.4-4.7,24.4c12.2-5.4,23.3-12.2,33.4-21.4c8.9-8.1,17-16.9,23.3-26.4c3.2-4.8,5.7-9.9,8.5-14.9
			c21.3,12.4,45.6,20.9,71.7,25.1c-8.9,28.6-22.8,56-42.9,81c-12.4,15.5-27,29.6-43.1,42.7c-3.5,2.9-7,5.4-10.1,7.9
			c-1.9,1-3.9,1.9-6,2.9c-10.8,4.8-22.8,9-30.7,16.1c-6.6,6-1.8,14.2,7.9,14.9c11.1,0.9,22.8-3,33.3-7.7c5.2-2.3,10-4.8,14.4-7.1
			C1187.3,1648,1200.2,1639.6,1208.6,1626.7z"/>
		<path class="st5" d="M1081.9,2004.6c12.9-14,24.8-28.8,35.6-44.4c20.6-29.8,37.1-62.4,48.5-97.8c21.3-66,17.6-135.7-8.1-199.4
			c-10.5,4.7-22.2,8.6-33.3,7.7c-9.6-0.8-14.4-8.9-7.9-14.9c7.9-7.1,19.9-11.3,30.7-16.1c-12-24.1-27.5-47.2-46-68.6
			c4.7-9.2,8.5-18.6,11.3-28.3c2.3-8,3.9-16.2,4.7-24.4c1.6-15.9,0.4-32.2-4.2-48.6c-21.8-77.9-116.3-117-204.7-139.3
			c-119.4-30.1-245.3-43.6-370.5-42.7c-68.4,0.5-136.7,5.6-204,15.1c-58.9,8.3-126,17.7-180.5,40.3c-51.7,7.6-106.4,30.8-144.1,54
			c-3,1.9-6,3.8-8.5,5.8v628.2h1058.9c4.7-5.2,9.4-10.4,13.8-15.8C1076.3,2011.8,1079.1,2008.2,1081.9,2004.6z M963.2,1910.6
			c-2.7,3.4-7.1,5.2-11.9,5.2c-3.7,0.9-8,0.6-11.1-0.7c-6.8-2.8-7.5-9.3-4.7-14.2c1.5-2.8,4.6-5.3,6.8-7.8
			c4.1-4.5,10.5-6.6,17.1-4.4c6.5,2.1,9.5,7.5,8,12.8C966.3,1904.6,965.4,1907.7,963.2,1910.6z M876.5,1866.2
			c-16.1-14-12.3-37.7,0.8-53.3c16.8-20,50.9-33.4,78.8-18.4c31.9,17.2,14.2,49-5.2,67.5C931.9,1880.2,894.6,1891.7,876.5,1866.2z
			 M57.6,1626.4c-1.9-1.1-0.8-3.9,1.8-3.2c0.9,0.2,1.6,0.5,2.5,0.7c-11.9-9-21.8-19-28.1-30c-1.5-2.7,1.6-5.8,5.3-4.2
			c27.5,12.2,49.5,30.7,76.9,43.4c21,9.8,43.7,17.5,66.9,23.9c23.1,4.8,45.6,10.3,68.8,15.4c47.8,8.5,96.6,13.4,145.2,16.6
			c155,10.4,309.6,3.8,462.7-17.3c7.9-1.1,13.9,1.6,17.7,5.6c29.8-1,40.4,34.9,8.7,42C620.2,1779.1,286.2,1754.7,57.6,1626.4z
			 M132.6,1571.7c60,13.4,113.6,41.4,173.8,55.7c66.1,15.7,129.2,15.4,197,19.7c14.9,0.9,20.4,19.6,3.8,22
			c-67.1,9.3-144.5-2.5-209-17.9c-60-14.4-129.8-35.5-167.6-77.1C129.3,1572.8,131.1,1571.4,132.6,1571.7z M568.4,1658.6
			c1.6-1.5,3-2.9,5.4-4c2-0.9,4.6-1.5,6.8-2c4.8-1,10.3-1.2,15.2-0.9c9.2,0.5,16.1,5.6,16.5,13c0.4,7.3-7.9,12.6-16.5,13
			c-5.1,0.2-10.4,0-15.2-1c-2.3-0.5-4.8-1.2-6.8-2.1c-2.5-1.1-3.9-2.5-5.6-4.1C562.3,1668,562.2,1661.1,568.4,1658.6z M936.9,1660.3
			c1.8-0.8,3.4-1.7,5.2-2.5c8-3.7,17.7-1.7,23.1,3.7c1.4,0.4,2.8,0.9,4.1,1.6c11.1,5.8,13.6,17,8,26.1c-5.3,8.6-18.2,13.5-30,11.1
			c-6.8-1.4-12.9-4.3-17-8.9c-4.8-5.6-5.6-12.2-1.9-18.2c0.1-0.2,0.3-0.3,0.5-0.5C928.3,1667.8,931.3,1663,936.9,1660.3z
			 M43.5,1402.9c0.5-0.3,1.3,0.3,0.9,0.7c-14.6,17.7-18.7,36-13.7,52.7c2.2-8.7,6.8-17.1,14.3-24.7c1.4-1.4,2.9-2.9,4.4-4.3
			c-2.9,0.1-5.1-1.8-4.3-3.8c2.5-2.2,5.3-4.3,8.4-6.5c1-0.7,1.6-1.5,2-2.3c14.8-10.8,33.1-19.6,52.6-26.9c1.8-1.1,3.7-1.7,5.7-2.1
			c31.7-11.4,66.2-19.5,95.6-26.8c60.5-15,122.9-24.5,185.8-30.9c114.2-11.6,231.5-11.6,345.8,0.3c94.2,9.8,194.4,31.3,264.6,84.9
			c1.3-3.6,7.2-5.2,10.5-1.3c6.7,8.1,11.7,17.5,15.1,27.5c12,28.5,9.9,55.3-2.5,79c-7.1,19.5-19.5,39.2-40.3,46.2
			c-0.4,0.1-0.8,0.2-1.1,0.3c-4.9,3.7-10.1,7.2-15.5,10.5c-12,7.5-25.2,14.1-39.4,19.9c-12.3,5-25.2,9.4-38.5,13.1
			c-101.7,27.8-216.2,33.1-322.9,29.2c-112.1-4.1-223.2-22.5-328-53.8c-6.3-1.9-14.4-4.3-23.9-7.3c-17.6-5.6-39.8-13-62.7-21.9
			c-10.1-3.9-20.5-8.2-30.8-12.7c-38-3-80-31.6-96.9-53.5C8,1461.2,4.7,1420.7,43.5,1402.9z"/>
		<path class="st6" d="M877.3,1677.3c-3.8-4-10-6.6-17.7-5.6c-153.1,21.1-307.7,27.7-462.7,17.3c-48.5-3.3-97.5-8.1-145.2-16.6
			c-23.2-5.1-45.7-10.6-68.8-15.4c-23.2-6.4-45.9-14-66.9-23.9c-27.2-12.8-49.4-31.2-76.9-43.4c-3.7-1.6-6.8,1.5-5.3,4.2
			c6.3,11,16.2,21,28.1,30c-0.9-0.2-1.6-0.5-2.5-0.7c-2.5-0.7-3.7,2.1-1.8,3.2c228.6,128.3,562.6,152.7,828.3,92.9
			C917.7,1712.2,907.1,1676.3,877.3,1677.3z"/>
		<path class="st6" d="M930.2,1691.4c4.1,4.6,10.1,7.5,17,8.9c11.8,2.4,24.7-2.5,30-11.1c5.6-9.1,3.2-20.4-8-26.1
			c-1.3-0.7-2.7-1.2-4.1-1.6c-5.3-5.4-15.1-7.3-23.1-3.7c-1.8,0.8-3.4,1.6-5.2,2.5c-5.6,2.7-8.6,7.5-8.1,12.4
			c-0.1,0.2-0.4,0.3-0.5,0.5C924.6,1679.3,925.3,1685.9,930.2,1691.4z"/>
		<path class="st6" d="M1035.4,1491.5c-1.3,7.9-3.5,17.3-7,26.8c12.4-23.7,14.6-50.5,2.5-79
			C1036.9,1456.4,1038.1,1475.1,1035.4,1491.5z"/>
		<path class="st6" d="M72.3,1499c4.7,2.3,9.8,4.3,15.1,6c21.7-21,61.7-32.9,91.4-43.6c37.4-13.5,76.1-24.8,115.6-33.6
			c82.1-18.1,168.3-25.7,253.4-22.6c87.4,3.2,174.5,17,255.9,42.8c60.7,19.3,130.6,45.4,178.5,84.1c8.2-12.4,18.6-24.5,23.2-38.4
			c9-27.7,5.2-50.6,0-78.3c-0.1-0.8,0-1.6,0.3-2.3c-70-53.6-170.4-75.1-264.6-84.9c-114.2-11.9-231.5-11.9-345.8-0.3
			c-62.9,6.4-125.1,15.9-185.8,30.9c-29.4,7.3-64,15.3-95.6,26.8c-1.9,0.4-3.8,1-5.7,2.1c-19.5,7.4-37.7,16.2-52.6,26.9
			c-0.4,0.8-1,1.6-2,2.3c-3,2.2-5.8,4.3-8.4,6.5c-0.8,2,1.4,4,4.3,3.8c-1.5,1.4-3,2.8-4.4,4.3c-7.5,7.6-12.2,16-14.3,24.7
			C35.8,1472.8,50,1487.7,72.3,1499z M692,1351.8c-28.6-1.7-57.2-3.4-85.9-5C634.9,1347.7,663.5,1349.3,692,1351.8z"/>
		<path class="st7" d="M719.6,1586.7c10.9-0.1,21.8-0.1,32.7-0.2c-11.1-0.6-22.4-1.1-33.7-1.5C719,1585.5,719.4,1586.1,719.6,1586.7
			z"/>
		<path class="st7" d="M841.9,1596.9c3.8-0.7,7.6-1.3,11.4-2c-4.3-0.5-8.6-0.9-12.9-1.3C841,1594.6,841.5,1595.8,841.9,1596.9z"/>
		<path class="st7" d="M870.6,1503.8c-55.9-32.5-124.6-54.1-189.2-64.8c-48.8-8-98.9-10.2-148.6-5.9c-7.9,0.7-16.2,1.5-24.6,2.5
			c14.7,1.5,28.8,4.4,40.8,9.8c5.1,2.3,3.9,8.5-1.6,9.7c-34.3,7.6-76.8-0.2-112.5-0.8c-16.5-0.3-33.2-0.7-50-0.9
			c-89.4,13.8-174.9,44.9-228.7,100.9c22.9,8.9,45.1,16.3,62.7,21.9c58.5-37.9,141.5-57.2,214.6-67.6c5.2-0.7,10.4-1.4,15.5-2.1
			c0.8-0.4,1.4-0.8,2.2-1.2c4.6-2.6,9.2-2.3,13-0.5c69.2-7.3,138.8-5.7,207.8,3.3c13.2,1.7,8.7,16.8-3,17.4
			c-70.9,3.6-135.8,21.6-193.7,52.2c28.4-2.8,56.7-5,85-6.6c3.4-1.6,7-3.1,10.5-4.6c6.5-7.2,20.9-5.5,25.3,2.4
			c0.1,0.1,0.1,0.3,0.1,0.4c109.1-4.5,218-0.6,327.2,13.7c8.5,1.1,10.8,7,8.7,12.1c14.1-5.8,27.4-12.5,39.4-19.9
			C947.5,1543,911.7,1520.2,870.6,1503.8z M756.4,1534.7c-0.8,3.6-5.8,7.5-10.4,8.2c-18.2,2.7-44.6,9.7-62.6,3.8
			c-5.4-1.8-8.4-7-3.7-10.8c13.8-11,40-12.5,58.3-15.5c6.5-1.1,13.3,0.7,16.7,5.4C757.1,1528.8,757,1531.2,756.4,1534.7z"/>
		<path class="st8" d="M923.6,1583.1c-109.2-14.3-218.1-18.3-327.2-13.7c4.1,8.1-4.9,16.4-15.5,15.6c-5.1,1.3-10.1,2.7-15.2,3.6
			c-6.2,1.2-12.4,0.9-18.7,1.6c-4.7,0.5-10.4-4.3-5.4-7.4s9.2-6.8,14.4-9.6c1.4-0.8,2.9-1.4,4.3-2.1c-28.4,1.7-56.6,3.9-85,6.6
			c57.9-30.5,122.7-48.5,193.7-52.2c11.8-0.6,16.2-15.7,3-17.4c-69-9-138.7-10.6-207.8-3.3c8.6,4,12.8,15.9,1.3,19.8
			c-7.9,2.7-15.8,5.4-23.9,7.8c-8,2.4-16.1,3.4-24.4,4.9c-4.4,0.8-7.9-3.4-4.6-6.1c5.8-4.7,10.9-9.6,17.5-13.7
			c6.2-3.8,12.5-7.4,18.9-11c-5.2,0.6-10.4,1.3-15.5,2.1c-73.1,10.5-156,29.7-214.6,67.6c9.4,3,17.6,5.5,23.9,7.3
			c104.9,31.3,216.1,49.7,328,53.8c106.6,3.9,221.1-1.5,322.9-29.2c13.3-3.6,26.2-8,38.5-13.1
			C934.3,1590.1,932.1,1584.2,923.6,1583.1z M542.3,1524.9c5.7-7.7,17.1-9.6,25.1-15.2c7.7-5.3,19.6-4.1,23.8,3.7
			c4.2,7.9-3.2,15.5-13.4,16.1c-10.6,0.6-20.4,5.6-31.4,3.4C542.2,1532,540.2,1527.9,542.3,1524.9z M459.4,1574.7
			c-4.1,0.9-7-3.2-4.1-5.5c3-2.5,4.8-5.7,8.1-8.1c2.8-2,6.6-3.7,8.6-6.4c4.8-6.5,17.1-6.5,21.9,0c5.1,6.8-1.5,14.8-11,15.1
			c-3.5,0.1-7.6,2.1-10.9,3C468,1574.1,463.5,1573.8,459.4,1574.7z M684.4,1592.2c-7.3,2-14.8,3.4-21.9,6.3
			c-5.7,2.4-12.2-3.6-7.1-7.3c6.2-4.5,10.9-9.8,16-14.9c3.5-8.4,18.5-12.4,26.9-3.9C707,1581.3,696.5,1593.2,684.4,1592.2z
			 M719.6,1586.7c-0.3-0.6-0.6-1.2-1-1.7c11.3,0.4,22.4,0.9,33.7,1.5C741.4,1586.6,730.5,1586.6,719.6,1586.7z M841.9,1596.9
			c-0.4-1.2-0.9-2.3-1.5-3.4c4.3,0.4,8.6,0.9,12.9,1.3C849.5,1595.6,845.7,1596.2,841.9,1596.9z"/>
		<path class="st8" d="M738.1,1520.4c-18.2,3-44.6,4.4-58.3,15.5c-4.7,3.8-1.9,9,3.7,10.8c18,6,44.3-1.1,62.6-3.8
			c4.6-0.7,9.6-4.5,10.4-8.2c0.6-3.5,0.8-5.9-1.5-9C751.4,1521,744.6,1519.3,738.1,1520.4z"/>
		<path class="st3" d="M412.6,1531.3c-3.3,2.7,0,6.9,4.6,6.1c8.4-1.5,16.3-2.5,24.4-4.9c8.1-2.4,16-5.1,23.9-7.8
			c11.5-4,7.5-15.8-1.3-19.8c-3.8-1.8-8.5-2-13,0.5c-0.8,0.4-1.4,0.8-2.2,1.2c-6.3,3.6-12.7,7.2-18.9,11
			C423.5,1521.7,418.3,1526.6,412.6,1531.3z"/>
		<path class="st3" d="M493.9,1554.8c-4.8-6.5-17.1-6.5-21.9,0c-1.9,2.6-5.8,4.4-8.6,6.4c-3.3,2.4-5.1,5.6-8.1,8.1
			c-2.9,2.3,0,6.5,4.1,5.5c4.2-1,8.6-0.7,12.8-1.8c3.3-0.9,7.2-2.9,10.9-3C492.4,1569.5,499,1561.6,493.9,1554.8z"/>
		<path class="st3" d="M546.5,1532.9c10.9,2.3,20.8-2.8,31.4-3.4c10.3-0.6,17.6-8.2,13.4-16.1c-4.2-7.8-16.1-9.1-23.8-3.7
			c-8,5.5-19.4,7.4-25.1,15.2C540.2,1527.9,542.2,1532,546.5,1532.9z"/>
		<path class="st3" d="M541.6,1582.8c-4.9,3.1,0.8,7.9,5.4,7.4c6.2-0.7,12.5-0.5,18.7-1.6c5.1-1,10.1-2.3,15.2-3.6
			c10.5,0.9,19.5-7.5,15.5-15.6c-0.1-0.1-0.1-0.3-0.1-0.4c-4.4-7.9-18.9-9.6-25.3-2.4c-3.5,1.5-7.1,3-10.5,4.6
			c-1.5,0.7-2.9,1.3-4.3,2.1C550.8,1576,546.5,1579.7,541.6,1582.8z"/>
		<path class="st3" d="M671.5,1576.4c-5.2,5.1-9.8,10.4-16,14.9c-5.1,3.7,1.4,9.7,7.1,7.3c7.1-2.9,14.6-4.3,21.9-6.3
			c12,1,22.4-10.9,13.8-19.7C690,1564,675.1,1568,671.5,1576.4z"/>
		<path class="st3" d="M950.8,1862.1c19.4-18.6,37.1-50.3,5.2-67.5c-27.7-15-61.9-1.6-78.8,18.4c-13,15.6-16.8,39.3-0.8,53.3
			C894.6,1891.7,931.9,1880.2,950.8,1862.1z"/>
		<path class="st3" d="M959.3,1888.6c-6.6-2.2-13.2,0-17.1,4.4c-2.3,2.5-5.3,4.9-6.8,7.8c-2.8,5-2,11.4,4.7,14.2
			c3.2,1.3,7.5,1.6,11.1,0.7c4.8-0.1,9.4-1.8,11.9-5.2c2.3-2.9,3.2-5.9,4.1-9.2C968.8,1896.1,965.7,1890.7,959.3,1888.6z"/>
		<path class="st3" d="M298,1651.1c64.5,15.4,141.9,27.2,209,17.9c16.7-2.3,11.1-21-3.8-22c-67.6-4.3-130.7-4-197-19.7
			c-60-14.3-113.7-42.3-173.8-55.7c-1.5-0.3-3.3,1.1-2.2,2.3C168.2,1615.6,238,1636.7,298,1651.1z"/>
		<path class="st3" d="M573.9,1674.7c2,0.9,4.6,1.6,6.8,2.1c4.8,1,10.1,1.2,15.2,1c8.6-0.4,16.8-5.7,16.5-13
			c-0.4-7.4-7.2-12.5-16.5-13c-4.9-0.3-10.4-0.1-15.2,0.9c-2.3,0.5-4.8,1.1-6.8,2c-2.4,1.1-3.9,2.4-5.4,4c-6.2,2.5-6.2,9.4-0.1,12
			C570.1,1672.2,571.5,1673.6,573.9,1674.7z"/>
		<path class="st4" d="M125.5,1541.8c10.1,4.5,20.5,8.7,30.8,12.7c53.8-56,139.5-87.1,228.7-100.9c16.7,0.2,33.4,0.6,50,0.9
			c35.7,0.6,78.1,8.4,112.5,0.8c5.4-1.2,6.7-7.4,1.6-9.7c-12-5.4-26.1-8.3-40.8-9.8c8.4-1,16.6-1.9,24.6-2.5
			c49.7-4.3,99.8-2.2,148.6,5.9c64.6,10.6,133.4,32.3,189.2,64.8c41.2,16.3,76.9,39.2,101.1,71.4c5.4-3.4,10.6-6.9,15.5-10.5
			c0.4-0.1,0.8-0.1,1.1-0.3c20.8-7,33.2-26.7,40.3-46.2c3.4-9.5,5.7-18.9,7-26.8c2.7-16.4,1.4-35.1-4.4-52.2
			c-3.4-9.9-8.4-19.4-15.1-27.5c-3.2-3.9-9.1-2.3-10.5,1.3c-0.3,0.7-0.4,1.4-0.3,2.3c5.2,27.7,9,50.6,0,78.3
			c-4.4,13.9-14.9,26-23.2,38.4c-47.9-38.7-117.8-64.8-178.5-84.1c-81.2-25.8-168.5-39.6-255.9-42.8c-85.1-3.1-171.4,4.5-253.4,22.6
			c-39.6,8.7-78.3,20-115.6,33.6c-29.8,10.8-69.8,22.6-91.4,43.6c-5.3-1.7-10.4-3.7-15.1-6c-22.3-11.3-36.5-26.2-41.5-42.7
			c-5.1-16.7-0.9-35,13.7-52.7c0.4-0.4-0.4-1-0.9-0.7c-38.9,17.9-35.6,58.3-14.9,85.4C45.4,1510.2,87.5,1538.8,125.5,1541.8z"/>
		<path class="st3" d="M5396.6,621.4c-63.2-9-126.4-17.9-189.6-27c-21.2-3.1-43.1-6.3-63.5-11.8c0.8,5.7,1.5,11.4,2.5,17.1
			c0.9,5.6,1.9,11.1,2.9,16.7c0.3,0.7,0.4,1.4,0.6,2.2c2.9,10.2,5.3,20.5,8.4,30.8c1,3.4,2.2,6.8,3.3,10.2
			c38,16.6,76.1,33.1,114.1,49.7c17.2,7.6,35,14.5,52.9,20.9c7.1,2.6,14.3,5,21.5,7.5c0.4,0.1,11.8,3.7,18,5.7
			c2.8,0.8,5.4,1.6,6.7,2c9.1,2.6,18.4,5.2,27.6,7.8c14.7,4.1,29.5,8,44.2,12c75.5,20.4,148.8,44.3,222.9,67.8
			c2.2,0.7,4.4,1.4,6.6,2.1c0.4,0.1,0.6,0.2,1.1,0.3c9.1,2.5,18.1,5.3,27.2,7.8c14.4,4,29.1,7.7,43.8,11.1
			c29.1,6.7,61.3,8,89.9,14.7c2.4,0.1,4.8,0.2,7.2,0.2c9.1,0.1,18.2,0,27.2-0.3c11.1-0.4,22.2-1.2,33.2-2.3
			c22.8-4.2,45.2-8.6,67.4-14.6c9.1-2.5,18.2-5.1,27.2-8c2.4-0.8,4.8-1.5,7.1-2.3c41-17.3,81.2-34.2,119.4-55.3
			c10.9-6,21.5-12.2,32-18.5c1.5-0.9,3.2-1.9,4.7-2.8c16.1-13.3,36.7-24.4,53.8-36.9c9.2-6.8,18.4-13.7,27.4-20.6
			c-24.1-1.3-47.8-3.4-69.7-4.6C5913.5,689.4,5654.3,657.9,5396.6,621.4z"/>
		<path class="st2" d="M5807.1,384c-0.5,0.1-1,0.2-1.5,0.2c1,0.2,2,0.5,3,0.7C5808.2,384.6,5807.7,384.3,5807.1,384z"/>
		<path class="st2" d="M5203.1,553.5c-0.5-0.1-1-0.1-1.5-0.2c0.9,0.2,1.8,0.4,2.7,0.7C5203.9,553.8,5203.5,553.6,5203.1,553.5z"/>
		<path class="st2" d="M6291.4,608.6c-0.1,0.6-0.3,1.1-0.4,1.7c0.6-0.6,1.3-1.2,2-1.8C6292.4,608.4,6291.9,608.5,6291.4,608.6z"/>
		<path class="st2" d="M6177,81L6177,81C6177.1,81,6177.1,81,6177,81L6177,81L6177,81z"/>
		<path class="st6" d="M5108.5,270.7c-15.1,40-31.3,80.2-36.2,121.9c-0.8,6.2-1,12.6-0.9,18.9c13.9-25.8,34.3-49.3,57.1-66.7
			c3.7-2.8,10.9,0,9,4.1c-11,23.9-28.2,45.7-41.4,68.6c2.5,1.6,3.9,4.3,1.8,7.3c-29.5,41.3,7.5,90.4,54,111.6
			c15.7,7.2,32.6,12.5,49.9,16.8c0.5,0.1,1,0.1,1.5,0.2c0.4,0.2,0.9,0.3,1.3,0.5c33.3,7.9,68.5,11.8,102,16.6
			c218.9,31,438.7,57.2,659.4,78.8c85.2,8.3,183.7,24.3,267.2,0.5c21-10.6,40.2-23.6,56.6-38.3c0.5-0.4,0.9-0.8,1.4-1.3
			c0.1-0.6,0.3-1.1,0.4-1.7c0.5,0,1-0.1,1.6-0.2c34.7-32.1,57.5-71.5,68.3-112.8c0.8-2.9,6.2-2.1,6.2,0.7
			c0.4,34.5-11.5,67.2-33.1,96.4c15.6-14.2,29.4-29.6,42.4-45.6c5.6-12.7,11-25.3,16.5-38c1.5-6.4,3.2-12.8,4.7-19.2
			c0.8-3.2,3.2-5.3,6.2-6.5c8.6-20.8,17.1-41.7,25.5-62.7V178.8c-18.6,35.4-42.1,69.6-62.9,104.1c-21.8,35.9-43.1,72.1-65.5,107.8
			c-18.2,29-39.8,57.7-74.6,76.2c-28.2,15-64.3,21.8-97,12.4c-21.7-6.3-40.5-19.6-48.8-36.4c-7.5,5.4-15.3,10.3-23.7,14.2
			c-45.7,21.6-102.3,20.9-153.8,8.7c-0.9,1.4-1.8,2.7-2.7,4.1c-18,26.3-40.7,52.9-68.8,73c-26.5,19-58.6,32.9-94.5,36.7
			c-15.5,1.7-37.4,2.2-55-2.3c-29.5,4.7-48.4-6.2-55.5-21.5c-0.9,0-1.8-0.1-2.8-0.4c-0.8-0.3-1.5-0.6-2.2-0.9
			c-3.2,0.3-6.6-0.8-7.5-3.4c-20.1-10.9-31.3-32.2-35.2-52.2c-6.2-16.1-8.1-33.3-5.8-46.8c0.6-3.5,1.5-7.1,2.7-10.8
			c-18.6,2.2-37.6,2.5-56.2,0.6c-16.8-1.7-36.2-5.6-55.4-11.8c-6-1.2-11.8-2.6-17.7-4.5c-16.3-5.1-32-13.7-43.1-24.7
			c-32.2-16.7-54.6-43.8-65.7-72.9c-8.2,2.2-17.9,2.1-28.9-1.3c-22.4-7-32.4-26.1-39.6-42.9c-10-23.5-16.1-48.1-18.6-72.8
			c-5.2-49.2,4.6-99.8,29.1-145.3c8.4-15.4,23.8-40.4,44.6-55.1c1.8-2.4,3.9-4.6,6.2-6.6h-114.5c-20.1,46-39.5,93.3-58.5,140.2
			C5140.9,186.5,5124.5,228.5,5108.5,270.7z M6005.6,532.5c3.2-0.1,6.2-0.1,9.4,0c19-10.3,47.8-11.8,69-9.4
			c30.3,3.4,56.1,19.6,72.1,39.5c6.2,7.7-4.1,14.7-12.9,13.2c-1.6,1.1-3.8,2-6.1,2.2c0.8,0.9,1.5,1.9,2.2,2.9
			c6.2,9.1-6.3,19.3-18,14.2c-20.6-9.1-35.8-22.6-58.9-29.2c-17.6-5-42.8-3.8-57.5-12.6c-2.4-1.5-3.8-4.1-2.4-6.2
			c-0.6-0.1-1.3-0.2-1.8-0.2C5988.1,545.4,5995.7,529.9,6005.6,532.5z M5910,490.3c2.2-0.9,4.4-1.6,6.8-2.2c0.9-0.2,1.6-0.5,2.5-0.7
			c1.4-0.4,1.9-0.4,0.3,0.1c4.7-1.5,9.1-2.1,13.7,0c2.9,1.4,5.3,3.8,6.2,6.4c2.3,6.6-4.2,13.8-13,13.6c-3.5-0.1-7,0.5-10.5,0.2
			c-5.4-0.5-9.6-2.6-11.4-6.8C5903,497,5905.6,492.2,5910,490.3z M5549.8,474.6c3.7,4.4,6.1,9.8,8.9,14.7c2.9,5.2,1.3,11.1-5.7,13.4
			c-7.2,2.4-13.6-0.9-16.2-6.1c-2.5-4.9-5.8-10-7.3-15.2C5526.6,471.5,5542.8,466.3,5549.8,474.6z M5283.4,433.3
			c-0.8-4,4.7-7.2,8.6-5.3c3.4-0.5,6.7,2.9,5.1,5.8c0,0.1-0.1,0.2-0.1,0.2c0.8,1.2,1.5,2.4,2.3,3.6c-0.4-2.5-0.4-5.1-0.1-7.6
			c0.6-5.9,9.4-9.5,15.1-4.9c12.2,9.5,16.6,23.5,22.7,35.8c5.7,11.5,13.7,23.6,16.3,35.9c1.5,1.9,1.6,3.9,0.9,5.8v0.1
			c0.5,8.4-9.8,10.8-17.5,8.2c-46.2-3.2-81.6-44.6-52.9-76.3C5283.5,434.1,5283.4,433.7,5283.4,433.3z"/>
		<path class="st6" d="M6268.8,51.5c-0.3,10.2-0.6,20.8-1.4,31.5c36.7-22.9,89.8-29.5,112,12.4c1.9,3.7,3.5,7.4,4.8,11.2
			c9-2.1,19-1.5,30,3.6c6.5,3,11.5,6.6,15.3,10.7V4.2h-125.9c-11.7,2-23.6,3.3-35.6,3.3C6268.9,22.4,6269.1,37,6268.8,51.5z"/>
		<path class="st6" d="M5562.2,401.9c-1.8,0.6-3.5,1.1-5.4,1.7c-1.8,0.5-3.4,1-5.2,1.5c4.6-1,9.2-2,13.8-3.1
			C5564.2,402,5563.2,401.9,5562.2,401.9z"/>
		<path class="st6" d="M5294.7,471.3c1.9,4.2,4.6,8.1,8.1,11.5C5300.1,478.9,5297.5,475.1,5294.7,471.3z"/>
		<path class="st6" d="M5351.6,21.5c0.1,0.2,0.1,0.3,0.3,0.5c0.1-0.2,0.3-0.5,0.4-0.7C5351.9,21.3,5351.7,21.4,5351.6,21.5z"/>
		<path class="st4" d="M5349.8,507c-1.3,2.3-4.1,4.1-8.2,4c-1.6,0-3.4-0.1-5.1-0.2c7.7,2.6,18,0.2,17.5-8.2v-0.1
			C5353.3,504.3,5351.8,505.9,5349.8,507z"/>
		<path class="st4" d="M5351.3,495.1c0.8,0.6,1.4,1.1,1.8,1.8c-2.7-12.3-10.8-24.4-16.3-35.9c-6.1-12.3-10.5-26.3-22.7-35.8
			c-5.8-4.5-14.4-0.9-15.1,4.9c-0.3,2.6-0.3,5.1,0.1,7.6c5.6,8.9,10.9,17.9,17.6,26.4C5326.6,476.1,5338.1,485.4,5351.3,495.1z"/>
		<path class="st4" d="M6129.9,577c-41.3-17-81.9-24.2-127.3-29.9c-1.4,2.2-0.1,4.8,2.4,6.2c14.7,8.8,39.9,7.6,57.5,12.6
			c23.1,6.6,38.1,20.1,58.9,29.2c11.7,5.1,24.1-5.1,18-14.2c-0.6-1-1.4-1.9-2.2-2.9C6134.9,578.4,6132.4,578.1,6129.9,577z"/>
		<path class="st4" d="M5616.5,413.2c-10,2.4-20.1,5-30.4,7.7c-39.4,10.1-81.2,17.2-121.6,9.3c19.1,6.1,38.5,10.1,55.4,11.8
			c18.6,1.8,37.6,1.5,56.2-0.6c-1.1,3.7-2.2,7.4-2.7,10.8c-2.3,13.4-0.4,30.6,5.8,46.8c-1.1-6-1.6-11.8-1.5-17.3
			C5578.4,455.2,5592.6,431,5616.5,413.2z"/>
		<path class="st4" d="M6414.2,110.2c-11.1-5.1-21.2-5.7-30-3.6c7.5,22.3,4.3,46.2,0.6,68.8c-5.1,30.7-14.6,60.8-27.7,90
			c-27,59.4-69.7,114.3-124.8,160c-21.7,18-48.5,41.6-82.7,42.1c-23.2,0.3-47.9-11.5-47-31.4c0.1-1.6,0.6-2.8,1.6-3.8
			c-1.1-2.4-2.2-4.9-3-7.3c32.2-30.8,52.3-72.8,60.3-109.9c1.4-6.7,2.4-13.3,3-19.7c0.3-2.8-5.2-4-6.7-1.4
			c-19.3,32-29.4,66.6-53.7,97c-7.2,9-15.3,16.7-23.9,23.7c-6.5,4.7-13.3,9.2-20.5,13.4c-22,12.6-48.6,21.4-76.1,25
			c-4.1,2.1-8.5,2.3-12.3,1.3c-7.6,0.6-15.2,0.7-22.7,0.5c-17,1.2-32.2-1.8-46.1-7.3c-0.3-0.1-0.5-0.2-0.8-0.3
			c-1.8,0.4-3.7,0.4-5.8-0.2c-23.6-6.2-42.9-20.3-65.4-28.7c-4.9-1.9-9.9-3.5-14.9-5.1c-0.9-0.8-1.6-1.6-2.5-2.4
			c-23.3-20.7-62.7-35.7-97.7-27.6c-0.8,0.2-1.1,0.6-1.4,1.1c-0.5,1-0.1,2.3,1.4,2.5c32.7,4.3,63.2,9.8,83.3,32.7
			c7.9,8.9,13.6,19.2,16.5,29.8c2.2,7.6,1.3,15.4,1.9,23c-1.1,7-1.5,14.1-2.7,21.1c-10.3,15.9-27.5,30.1-42.8,41.5
			c-23.8,17.6-55.1,36.5-87.5,42.1c-0.5,0.1-1,0.1-1.5,0.2c17.5,4.6,39.5,4,55,2.3c35.8-3.9,67.9-17.7,94.5-36.7
			c28.1-20.2,50.8-46.8,68.8-73c0.9-1.3,1.8-2.7,2.7-4.1c51.6,12.2,108.2,13,153.8-8.7c8.2-3.9,16.2-8.8,23.7-14.2
			c8.2,16.8,27,30.1,48.8,36.4c32.7,9.5,68.8,2.7,97-12.4c34.8-18.5,56.4-47.1,74.6-76.2c22.4-35.7,43.7-71.9,65.5-107.8
			c20.9-34.5,44.3-68.8,62.9-104.1v-57.9C6425.7,116.8,6420.7,113.2,6414.2,110.2z"/>
		<path class="st4" d="M5409.7,20.8c-11.4,14.7-16,33.1-22,49.2c-8.7,22.9-20.1,44.2-19,68.5c0,1,1.9,1.5,2.5,0.5
			c12.3-20.3,15.3-42.3,23.9-63.4c2.4-5.8,5.3-11.6,8.5-17.4c3.8-7.2,7.9-14.5,11.1-21.8c0.6-1.5,1.3-3.1,1.9-4.6
			c0.1,0.2,0.3,0.5,0.4,0.7c2.9-7,6.2-13.8,9.6-20.7c1.3-2.6,2.7-5.5,4.1-7.5h-42.1C5397,7.2,5404.1,13.7,5409.7,20.8z"/>
		<path class="st4" d="M5336.4,4.2h-5.4c-2.3,2-4.3,4.3-6.2,6.7C5328.5,8.3,5332.3,6.2,5336.4,4.2z"/>
		<path class="st4" d="M5536.7,496.6c2.7,5.2,9,8.5,16.2,6.1c7.1-2.4,8.7-8.3,5.7-13.4c-2.8-4.9-5.2-10.3-8.9-14.7
			c-7-8.3-23.3-3.1-20.4,6.8C5530.9,486.6,5534.3,491.7,5536.7,496.6z"/>
		<path class="st4" d="M5915.9,507.6c3.4,0.3,7-0.2,10.5-0.2c8.9,0.2,15.3-7,13-13.6c-0.9-2.6-3.3-5-6.2-6.4
			c-4.6-2.1-9.1-1.5-13.7,0c1.6-0.6,1.1-0.5-0.3-0.1c-0.9,0.2-1.6,0.4-2.5,0.7c-2.3,0.6-4.7,1.3-6.8,2.2c-4.4,1.9-7,6.7-5.4,10.5
			C5906.3,505.1,5910.5,507.1,5915.9,507.6z"/>
		<path class="st4" d="M6397.9,489.9c-1.5,6.4-3,12.8-4.7,19.2c-5.4,12.7-10.9,25.4-16.5,38c-13,15.9-26.9,31.4-42.4,45.6
			c21.5-29.2,33.4-61.9,33.1-96.4c0-2.8-5.6-3.5-6.2-0.7c-10.6,41.3-33.6,80.7-68.3,112.8c-0.6,0.6-1.3,1.2-2,1.8
			c-0.5,0.4-0.9,0.8-1.4,1.3c-16.6,14.8-35.6,27.7-56.6,38.3c-83.6,23.8-182,7.8-267.2-0.5c-220.6-21.6-440.6-47.8-659.4-78.8
			c-33.4-4.7-68.6-8.7-102-16.6c-0.9-0.2-1.8-0.4-2.7-0.7c-17.4-4.2-34.2-9.6-49.9-16.8c-46.5-21.3-83.3-70.3-54-111.6
			c2.2-3,0.8-5.7-1.8-7.3c13.2-22.9,30.4-44.7,41.4-68.6c1.9-4.1-5.3-6.9-9-4.1c-22.8,17.4-43.2,40.9-57.1,66.7
			c-24.6,45.5-29.1,98,8.7,137.2c16.6,17.2,39,27.2,63.5,33.8c20.4,5.5,42.3,8.7,63.5,11.8c63.2,9.1,126.4,18.1,189.6,27
			c257.6,36.5,516.9,68.1,778.3,81.5c21.9,1.1,45.6,3.3,69.7,4.6c26.5,1.4,53.2,1.8,78.5-1.4c2.9,0.2,6-0.2,8.7-1.2
			c11.4-1.8,22.4-4.4,32.9-8.1c17.4-6.1,32.6-15.8,43.1-27.5c3.4-1,6.3-3.3,7.7-7.1c1.4-3.7,2.7-7.5,3.9-11.3
			c0.6-1.5,1.1-3.1,1.6-4.6c2.8-8.1,5.6-16.2,8.2-24.3V420.8c-8.2,20.9-16.7,41.8-25.5,62.7C6401,484.6,6398.6,486.7,6397.9,489.9z"
			/>
		<path class="st9" d="M5941,11.7c0.5-1.5,1-3,1.3-4.5c-1.9,2.4-3.7,4.8-5.6,7.2c0.3,0.1,0.4,0.3,0.6,0.4
			C5938.6,13.8,5939.9,12.7,5941,11.7z"/>
		<path class="st9" d="M5416.8,32.5c0,0.1,0.1,0.2,0.1,0.3c-0.9,1.2-1.6,2.4-2.4,3.6c-3.3,7.3-7.2,14.6-11.1,21.8
			c-3.3,7.8-6.1,15.6-8.7,22.5c-11.1,28.7-18.5,58.1-22.9,87.9c-0.4,2.5-0.6,4.9-1,7.4c-6.6,22.2-10.8,45.2-12.4,67.9
			c-1.4,19-2.8,49.9,9.5,71.2c-0.6,0.8-1.5,1.6-2.5,2.1c0.4,1,0.8,2,1.1,2.9c14.9,35.7,51,69.2,101.3,71.9
			c49.1,2.6,96.9-20.1,144.9-34.6c-20.3-4.4-42.1-6.2-64.6-6.4c-0.8,0-1.4-0.4-1.6-0.9c-6.6,1.7-13.3,3.4-20.1,5.1
			c-4.3,1-6.6-3.8-3-5.6c38.3-18.9,91.4-24.6,135.8-23.8c34.2,0.6,66.9,5.6,98.2,15.1c22.9,2.9,45.1,5.4,69.4,2.1
			c10.1-1.4,20.1-3.4,29.9-5.9c23.9-26.9,45.3-54.5,63.5-84c-24.4-15.3-37.2-42.4-19.6-64.3c-1.5-2.8,0.1-6,3.4-7.6
			c1.6-2.8,5.2-5.2,9.5-5.6c16.3-1.6,30.1,2.5,40.9,9.8c8.9-21.3,16.2-42.9,22.4-64.8c-0.6-0.7-1.3-1.4-1.6-2
			c-2.3-3.3-1.8-7.6,1.6-10.3c1.1-0.9,2.4-1.5,3.7-1.9c6.3-25,11.3-50.2,14.7-75.6c1.3-8.9,2.3-17.4,3.2-26.4h-20.5
			c1.5,15-5.1,33-13.8,43.6c-13.7,16.6-42.4,31.1-68.9,29.9c-3.3,1.3-6.7,2.5-10.3,3.6c-5.2,1.7-8.7-1-9.6-4.4
			c-1.3-0.7-2.5-1.5-3.4-2.4c-3.3-1.6-5.4-4.7-4.1-7.9c0.6-1.4,1.3-2.6,1.9-4c-7.5-20.6-1.3-41.5,13.4-58.5h-91.7
			c-0.1,0-0.4,0.9-0.5,1.5c-18.1,65.7-35,129.4-42.6,196.5c-0.5,4.9-4.3,8.1-9,9.5c-0.1,0.1-0.1,0.1-0.3,0.2
			c-15.3,9.5-33.6,10.8-49.9,1c-18.4-11-19.8-29.8-18.5-46.6c3.5-44.3,15.1-88.7,31.8-131.1c4.2-10.5,8.7-21.2,13.7-31.2h-9
			c-5.6,16-15.2,30.5-27.5,41.9c-4.9,4.6-11.4,4.4-16.3,2c0.1,4,0.5,8,2.3,10.7c8.7,13.9-22.8,13.7-17.1,1.7
			c2.9-6.2,0.6-15.2,0.5-21.8c0-1.7,0-3.4,0-5c-4.3-1.7-7.5-4.9-6.8-8.6c-6-6.7-10.8-14-14.2-21h-197.5c-1.4,2-2.7,4.9-4.1,7.5
			C5423,18.6,5419.8,25.4,5416.8,32.5z M5821.6,158.6c-13.9,0-13.9-20.2,0-20.2C5839.3,138.3,5839.3,158.6,5821.6,158.6z
			 M5839.2,258.6c-3.2,3.4-6.3,6.7-9.8,10c-3.9,3.8-11.9,3.5-16.5,0.8c-4.9-3-6.2-8.4-3.2-12.7c1.5-2.1,2.8-4.3,4.4-6.4
			c0.8-1.1,1.8-2,2.7-3c0.8-0.9,1.6-1.7,2.5-2.5c2.4-1.6,2.9-1.9,1.9-1c3.2-2.2,7.2-3,11.1-1.7c3,1,5.8,3.5,6.2,6.2
			C5841.2,251.3,5842,255.6,5839.2,258.6z M5421.3,293.2c-28.5-12.9-28-41.3-27.6-64.2c0.4-24-1-71,26.1-86.9c1-0.6,3-0.2,3.5,0.7
			c9.9,18.2-2.3,42.2-4.1,61.5c-1.6,18.6-9.2,59.4,14.9,71.2C5448.4,282.5,5435.8,299.7,5421.3,293.2z M5468.8,313.3
			c-5.7,2.6-11.9,0.8-15.6-3.2c-2.7-3-4.2-6.4-2.9-10c0.9-2.6,3.5-4.4,6.7-5.2c2.4-0.9,5.3-1.2,8.4-0.9c5.3,0.6,9.1,4.8,9.8,8.7
			C5475.9,306.9,5473.7,311.1,5468.8,313.3z M5571.7,230.4c-3.3,5.3-10.5,6.1-16.5,4.2c-0.8,0.1-1.6,0.2-2.4,0.2
			c-2,0.1-4.1-0.1-6-0.8c-2.2-0.6-4.2-1.6-6-2.9c-23.6-12.3-46.2-30.8-54.1-52.4c-1-2.9,0.8-5.8,3.5-7.5c0.6-5,6.6-10.1,12.9-9.5
			c2.8,0.3,5.6,0.7,8.2,1.2c0.9-1.4,2.5-2.6,4.8-3.3c19.4-6,41.4,6.9,51.7,19.2C5581.2,194.2,5581.8,213.9,5571.7,230.4z
			 M5646.8,160.4c-4.1,4.1-11.9,4-16.8,1.2c-7-3.1-10.8-9.1-15.3-14.4c-5.1-5.8-10.5-11.6-12.3-18.6c-1-4,2.2-7.8,6.5-8.9
			c0.8-1,2-1.7,3.5-1.9c4.4-0.5,8.6-0.2,12.3,0.8c1-9.8,20.5-12.3,25.6-1.5c4.7,10,9.2,20,13.2,30.2
			C5667.1,156.6,5656,162,5646.8,160.4z M5673.8,250.5c2.2,1.7,3.5,4.3,3.5,6.7c0,2.6-1.4,4.8-3.5,6.7c-3,2.7-7.5,3-11.7,2.4
			c-1.5-0.2-3-0.8-4.4-1.3c-7.5-2.6-7.5-13.1,0-15.6c1.4-0.5,2.9-1.1,4.4-1.3C5666.4,247.5,5670.5,248,5673.8,250.5z M5537,37.2
			c0.5-2.3,2-4.4,4.4-5.8c4.6-2.8,11.5-2.6,15.7,0.7c2.9,2.4,5.4,5.1,8.1,7.8c2.2,2.2,3.4,4.2,3.7,6.9c0.1,2.6-1.5,5.1-3.7,6.9
			c-4.8,4.1-12.7,3.4-17.6,0c-2.8-1.9-5.4-3.7-8.2-5.6C5535.5,45.3,5535.1,40.8,5537,37.2z M5478.6,79.8c7.1,0,12.4,4.6,12.7,10
			s-6.1,10-12.7,10c-7.1,0-12.4-4.6-12.7-10C5465.5,84.4,5471.9,79.8,5478.6,79.8z"/>
		<path class="st9" d="M6143.7,445.8c40.4,3.2,90.7-52.8,109.7-73c32.4-34.6,58.5-72.7,77.6-113c18.9-40,32.9-83.8,35.6-126.5
			c0.6-11.2-0.4-23.6-5.6-33.9c-1.4,0.2-2.9,0.2-4.4-0.1c-24.8-5.3-47.8,10.8-65.9,32.1c-0.5,3.3-1,6.6-1.6,9.9
			c5.3-1.9,12.4-0.2,14.4,5.1l0.4,0.8c0.6,1,1,2.2,1.3,3.5c0.4,2.1,0.6,4.3,0.9,6.4c0.6,5.5-6.2,9.7-12.5,9.9
			c-3.4,0.1-6.8-1.2-9.4-3.3c-9.5,37.8-24.7,75.1-40.8,109.8c-25.3,54.4-58.4,106.1-98.4,154.6c-9.9,0.8-20.9,0.1-25.2-3.2
			c-0.3-0.2-0.6-0.2-0.8,0c-0.3,0.2-0.5,0.4-0.8,0.6c0-0.2,0.1-0.4,0.1-0.8c0.1-1.5-3-1.5-2.9,0c0,0.9,0.1,1.2,0.9,1.9
			c0.1,0.1,0.3,0.1,0.4,0.1c-0.3,0.2-0.6,0.5-0.9,0.7c-1,0.8-1.5,2-1.5,3.1c0,0.3,0,0.6,0.1,0.9
			C6119.1,445.7,6131,448.3,6143.7,445.8z M6247.7,322.6c12.4-19.2,23.3-39,33.1-59.1c7.2-14.9,11.9-28.9,24.6-41.4
			c0.6-0.6,1.9-0.3,2.2,0.4c9.5,35.3-20.4,78.4-40,109.3C6260.8,342.1,6241,333,6247.7,322.6z M6238.2,348.1
			c6.6,0,11.5,4.3,11.9,9.4c0.3,5.1-5.7,9.4-11.9,9.4c-6.6,0-11.5-4.3-11.9-9.4C6226,352.4,6232,348.1,6238.2,348.1z"/>
		<path class="st10" d="M6104.2,432.3c2.3-2.3,6.3-3,9.8-1.8c-0.1-1.2,0.5-2.3,1.5-3.1c0.3-0.2,0.6-0.5,0.9-0.7
			c-0.1,0-0.3,0-0.4-0.1c-0.8-0.7-0.9-1-0.9-1.9c-0.1-1.5,3-1.5,2.9,0c0,0.4-0.1,0.6-0.1,0.8c0.3-0.2,0.5-0.4,0.8-0.6
			c0.3-0.2,0.6-0.2,0.8,0c4.4,3.3,15.5,4,25.2,3.2c40-48.5,73.2-100.2,98.4-154.6c16.1-34.6,31.3-72,40.8-109.8
			c-2.2-1.8-3.5-4.2-3.3-6.6c0.3-2.1,0.5-4.3,0.9-6.4c0.3-1.3,0.6-2.3,1.3-3.3c0.1-0.3,0.3-0.7,0.4-1c1-2.5,3-4.2,5.6-5.1
			c0.6-3.3,1.1-6.6,1.6-9.9c18.2-21.2,41-37.4,65.9-32.1c1.6,0.3,3,0.3,4.4,0.1c-6-12-17.6-21.1-38.4-21.8
			c-31.7-1.1-53.8,20.8-77.8,33.7c-2.9,1.6-6.3-1.1-5.3-3.5c-16.3,14.8-29.9,32.9-39.6,48.3c-3.4,21.8-7.7,43.6-12.9,65.3
			c-6,25-12.9,50.9-22.5,76.1c5.8-5.8,11.4-12.1,16.2-19.1c22.3-32.1,30-69.4,47-103.2c2.3-4.5,10.4-2.8,9.2,2
			c-9.4,39.4-28.8,75.2-53.8,110.3c-6.2,8.7-13.4,18.4-21.7,27.6c-7.9,37.2-28.1,79.1-60.3,109.9
			C6102,427.4,6103.1,429.9,6104.2,432.3z"/>
		<path class="st10" d="M5280.1,65.9c-24.6,45.5-34.2,96.1-29.1,145.3c2.5,24.7,8.6,49.3,18.6,72.8c7.2,16.8,17.1,35.9,39.6,42.9
			c11,3.4,20.6,3.5,28.9,1.3c11.1,29.1,33.4,56.2,65.7,72.9c-9-9-14.8-19.8-15.2-31.7c-0.1-2.1,3.8-2.9,4.9-1.1
			c35.2,53,96.1,50.2,157.8,36.9c1.8-0.5,3.4-1,5.2-1.5c1.8-0.5,3.5-1.1,5.4-1.7c1,0,2.2,0,3.2,0.1c35.1-8.3,69.7-18.9,99.4-23.5
			c44.3-6.8,90.7-5.3,134.1,4.2c2.2,0.5,4.4,1,6.7,1.5c0.5-0.1,1-0.1,1.5-0.2c-33.9-20.3-72.4-33.8-115.5-41
			c-28.1-4.7-55.1-5.7-83.6-4.1c-22.2,1.3-41.5,6-61.6,11.1c0.3,0.5,0.9,0.9,1.6,0.9c22.5,0.2,44.3,2,64.6,6.4
			c-48,14.6-95.8,37.2-144.9,34.6c-50.3-2.7-86.4-36.1-101.3-71.9c-0.4-1-0.8-1.9-1.1-2.9c-3.7,2.1-8.9,2.3-11-1.8
			c-2.8-5.2-5.2-10.6-7.1-16.2c-18.9-18.7-32.7-40.5-42.8-62.9c-9-20-23.4-50.6-13-71.5c1-2,4.6-2.7,6.1-0.6
			c12.9,17.6,12.3,42.2,20.9,61.7c3.3,7.6,7.3,14.8,11.7,21.8c-11.8-39.6-9.6-84.3-3.8-123.4c3.3-22.5,8.2-45.1,14.7-67.2
			c3-10.5,5.7-23.7,10.9-35.3c-0.1-0.2-0.1-0.3-0.3-0.5c0.1-0.1,0.4,0,0.5-0.1c3-6.6,7-13.1,12.4-17.1h-28.1
			c-4.1,2-7.9,3.9-11.7,6.6C5303.9,25.5,5288.5,50.4,5280.1,65.9z"/>
		<path class="st10" d="M5670.7,166.5c-1.3,16.7,0.1,35.5,18.5,46.6c16.2,9.8,34.5,8.4,49.9-1.1c0.1-0.1,0.1-0.1,0.3-0.2
			c-8.4,2.6-19.4-0.5-18.6-9.6c4.7-65.9,19.9-136.3,51-197.7c0.1-0.1,0.1-0.3,0.3-0.3h-55.7c-4.9,10-9.5,20.7-13.7,31.2
			C5685.8,77.7,5674.3,122.1,5670.7,166.5z"/>
		<path class="st11" d="M6067.8,263.9c-21.2,57.3-44.8,118.7-95.9,164.2c-36.5,3.8-74-4.7-104.9-30.6c-2.2-1.8-4.7-2.7-7.2-3.1
			c-4.6-3.7-9.1-7.3-13.8-10.8c-17.2-12.5-36.5-22.9-57.2-31.5c-10.4-4.3-20.9-8-31.5-11.3c-31.3-9.5-64-14.4-98.2-15.1
			c-44.3-0.8-97.5,4.9-135.8,23.8c-3.7,1.8-1.4,6.7,3,5.6c6.8-1.7,13.6-3.4,20.1-5.1c20-5.1,39.4-9.8,61.6-11.1
			c28.5-1.7,55.5-0.6,83.6,4.1c43.1,7.2,81.6,20.7,115.5,41c0.5,0.3,1,0.6,1.5,0.9c-1-0.2-2-0.5-3-0.7c-2.3-0.5-4.6-1-6.7-1.5
			c-43.6-9.5-89.8-11-134.1-4.2c-29.8,4.6-64.3,15.2-99.4,23.5c-4.6,1.1-9.2,2.1-13.8,3.1c-61.7,13.3-122.7,16.1-157.8-36.9
			c-1.3-1.9-5.1-1-4.9,1.1c0.4,12,6.2,22.7,15.2,31.7c11,11.1,26.7,19.6,43.1,24.7c5.8,1.8,11.8,3.3,17.7,4.5
			c40.4,7.8,82.2,0.8,121.6-9.3c10.3-2.6,20.3-5.2,30.4-7.7c3.5-2.7,7.3-5.2,11.4-7.6c26.3-15.5,56.4-22.1,85.9-21.3
			c0.3-0.5,0.8-1,1.4-1.1c35-8.1,74.3,6.9,97.7,27.6c0.9,0.8,1.6,1.6,2.5,2.4c5.1,1.6,10,3.3,14.9,5.1c22.5,8.5,41.8,22.5,65.4,28.7
			c2,0.5,4.1,0.5,5.8,0.2c0.3,0.1,0.5,0.2,0.8,0.3c13.9,5.5,29.3,8.4,46.1,7.3c7.5,0.2,15.1,0.1,22.7-0.5c3.9,1,8.2,0.9,12.3-1.3
			c27.4-3.7,54.1-12.4,76.1-25c7.2-4.2,14.1-8.6,20.5-13.4c8.7-7,16.8-14.8,23.9-23.7c24.3-30.3,34.3-65,53.7-97
			c1.5-2.5,7.1-1.3,6.7,1.4c-0.6,6.3-1.6,12.9-3,19.7c8.2-9.2,15.5-18.9,21.7-27.6c25.1-35.1,44.5-70.9,53.8-110.3
			c1.1-4.8-7-6.5-9.2-2c-17,33.8-24.7,71.1-47,103.2c-4.8,7-10.4,13.3-16.2,19.1c9.6-25.2,16.5-51.1,22.5-76.1
			c5.2-21.7,9.4-43.5,12.9-65.3c7.7-48.3,11.4-96.7,12.3-145.4c-0.3-2.2-0.4-4.3-0.5-6.3h-92.5c-0.6,21-2.2,42.8-4.6,64.2
			C6107.3,134.7,6091.5,200.1,6067.8,263.9z M6178.4,64.2c-0.5,5.6-0.9,11.2-1.4,16.8c0,0,0,0,0,0.1c0,0,0,0-0.1,0l0,0
			c0.3-5.5,0.5-11,0.8-16.6C6178,64.3,6178.3,64.3,6178.4,64.2z"/>
		<path class="st11" d="M5676.9,26.1c-0.1,6.6-9,8.7-14.6,6.5c0,0,0,0.1-0.1,0.1c0.4,2,0.5,4,0.8,6c0.3,2.6,0.3,5.9,0.3,9.3
			c4.9,2.4,11.4,2.7,16.3-1.9c12.3-11.4,21.9-25.9,27.5-41.9h-21.8c-2.3,6-5.1,12.2-8.4,17.6C5677.1,23.3,5677.1,24.7,5676.9,26.1z"
			/>
		<path class="st11" d="M5895,77.9c26.5,1.2,55.2-13.4,68.9-29.9c8.7-10.6,15.3-28.7,13.8-43.7h-16.1
			C5956.5,35.2,5931.4,63.2,5895,77.9z"/>
		<path class="st11" d="M5663.5,147.4c-3.9-10.2-8.5-20.2-13.2-30.2c-5.1-10.8-24.6-8.3-25.6,1.5c17.2,4.4,26.1,22.5,24.7,36.1
			c-0.3,2.4-1.1,4.2-2.5,5.6C5656,162,5667.1,156.6,5663.5,147.4z"/>
		<path class="st11" d="M5540.9,231.1c1.6,1.3,3.7,2.3,6,2.9c-0.4-0.1-0.8-0.3-1.1-0.5C5544.1,232.7,5542.6,231.9,5540.9,231.1z"/>
		<path class="st11" d="M5516.5,159.6c-2.3,0.7-3.9,1.9-4.8,3.3c36,7,60,34.9,52.6,64.6c-1,4.3-6.2,6.9-11.4,7.2
			c0.9,0,1.6-0.1,2.4-0.2c6,1.8,13.2,1,16.5-4.2c10.1-16.4,9.5-36.1-3.5-51.6C5557.9,166.5,5536,153.6,5516.5,159.6z"/>
		<path class="st11" d="M5982.6,125.2c2.9,1.4,6.2,2.4,9.4,3.1c6.8,1.3,16,1.5,21.9-1.8c4.6-2.5,7.2-6.6,5.7-11
			c-1-2.8-3.9-5.4-7.5-6.5c-0.6,3.8-4.2,6.9-9.1,8.3c-2.8,0.8-5.6,1.7-8.5,2.3c-2,0.4-3.2,0.6-5.3,0.5c-1.4-0.1-2.2-0.1-3.7,0.1
			c-3.5,0.5-7.1-0.4-9-2.9c-1.8-2.3-1.4-5.8,1.3-7.6c1.6-1.1,2.9-2.5,4.3-3.7c-0.5,0.1-1.1,0.2-1.6,0.3c-1.3,0.4-2.5,1-3.7,1.9
			c-3.4,2.7-3.9,7-1.6,10.3c0.4,0.6,1,1.3,1.6,2C5978.1,122.1,5980.2,123.9,5982.6,125.2z"/>
		<path class="st11" d="M5956.1,203.9c12.8,13.2,19.3,28.9,19.4,45.5c0,2.7-1.3,4.7-3,6.1c0.4,4.6-3,9.3-10.8,9.4
			c-2.8,0-5.6-0.1-8.4-0.4c7.6,3.2,19.3,1.9,23.4-6.3c11.5-22.7,2.3-56.2-22.4-72.8c-10.8-7.3-24.6-11.4-40.9-9.8
			c-4.3,0.4-7.9,2.8-9.5,5.6c1.1-0.5,2.4-0.9,3.8-1C5926.3,178.6,5945.6,193,5956.1,203.9z"/>
		<path class="st11" d="M5720.6,202.2c-0.6,9.1,10.4,12.2,18.6,9.6c4.6-1.5,8.5-4.7,9-9.6c7.6-67.2,24.4-130.7,42.6-196.5
			c0.1-0.6,0.4-1.5,0.5-1.5h-19.4c-0.1,0-0.1,0.1-0.3,0.3C5740.5,65.9,5725.5,136.3,5720.6,202.2z"/>
		<path class="st11" d="M6244.9,111.2c23.9-12.8,46.1-34.7,77.8-33.7c20.9,0.7,32.4,9.8,38.4,21.8c5.1,10.3,6.2,22.7,5.6,33.9
			c-2.5,42.8-16.6,86.6-35.6,126.5c-19.1,40.3-45.2,78.4-77.6,113c-19,20.2-69.3,76.3-109.7,73c-12.7,2.6-24.6-0.1-29.5-14.4
			c-0.1-0.3-0.1-0.6-0.1-0.9c-3.5-1.2-7.6-0.5-9.8,1.8c-0.9,1-1.5,2.2-1.6,3.8c-1,19.9,23.8,31.7,47,31.4
			c34.2-0.5,61-24.2,82.7-42.1c55.1-45.7,97.9-100.6,124.8-160c13.3-29.2,22.7-59.2,27.7-90c3.7-22.6,6.8-46.5-0.6-68.8
			c-1.3-3.8-2.8-7.5-4.8-11.2c-22.2-41.9-75.2-35.3-112-12.4c-11,6.9-20.6,15.2-27.5,24.2c-0.1,0.2-0.3,0.4-0.3,0.5
			C6238.5,110,6242.1,112.7,6244.9,111.2z"/>
		<path class="st11" d="M6303.5,4.2H6234c11.3,2,22.7,3.5,34.1,3.5C6280,7.7,6291.9,6.2,6303.5,4.2z"/>
		<path class="st11" d="M5351.8,21.9c-5.2,11.7-7.9,24.9-10.9,35.3c-6.6,22.1-11.4,44.7-14.7,67.2c-5.7,39.1-8,83.8,3.8,123.4
			c-4.3-7-8.2-14.3-11.7-21.8c-8.6-19.5-8-44.1-20.9-61.7c-1.5-2.1-5.1-1.4-6.1,0.6c-10.4,20.9,4.1,51.4,13,71.5
			c10.1,22.5,23.9,44.3,42.8,62.9c1.9,5.6,4.3,11,7.1,16.2c2.2,4,7.5,3.8,11,1.8c1-0.6,1.9-1.3,2.5-2.1
			c-12.3-21.3-10.9-52.2-9.5-71.2c1.6-22.8,5.8-45.7,12.4-67.9c0.3-2.5,0.6-4.9,1-7.4c4.3-29.8,11.8-59.2,22.9-87.9
			c2.7-6.9,5.4-14.7,8.7-22.5c-3.2,5.9-6.1,11.7-8.5,17.4c-8.7,21.2-11.8,43.2-23.9,63.4c-0.6,1-2.4,0.4-2.5-0.5
			c-1.1-24.3,10.4-45.7,19-68.5c6.1-16.1,10.8-34.4,22-49.1c-5.6-7.1-12.7-13.6-21.2-16.6h-23.9c-5.4,4-9.4,10.6-12.4,17.1
			C5352.1,21.6,5351.9,21.7,5351.8,21.9z"/>
		<path class="st11" d="M5416.8,32.5c-0.1-0.2-0.3-0.5-0.4-0.7c-0.6,1.5-1.3,3.1-1.9,4.6c0.8-1.2,1.5-2.4,2.4-3.6
			C5416.9,32.7,5416.9,32.6,5416.8,32.5z"/>
		<path class="st11" d="M5539.5,48.1c2.8,1.9,5.4,3.7,8.2,5.6c4.9,3.4,12.8,4.1,17.6,0c2.2-1.9,3.8-4.3,3.7-6.9
			c-0.1-2.8-1.5-4.8-3.7-6.9c-2.7-2.7-5.2-5.3-8.1-7.8c-4.2-3.4-11-3.5-15.7-0.7c-2.4,1.5-3.9,3.6-4.4,5.8
			C5535.1,40.8,5535.5,45.3,5539.5,48.1z"/>
		<path class="st11" d="M5832.4,242c-3.9-1.3-8-0.5-11.1,1.7c1.1-0.9,0.5-0.6-1.9,1c-0.9,0.8-1.6,1.7-2.5,2.5c-1,1-1.9,1.9-2.7,3
			c-1.5,2.1-2.9,4.3-4.4,6.4c-3,4.3-1.8,9.7,3.2,12.7c4.6,2.8,12.4,3,16.5-0.8c3.4-3.2,6.6-6.6,9.8-10c2.9-3,2-7.3-0.6-10.4
			C5838.2,245.5,5835.4,243,5832.4,242z"/>
		<path class="st11" d="M6305.9,157c-0.3-2.1-0.5-4.3-0.9-6.4c-0.3-1.4-0.6-2.5-1.3-3.5l-0.4-0.8c-2-5.3-9.1-7-14.4-5.1
			c-2.5,0.9-4.7,2.6-5.6,5.1c-0.1,0.3-0.3,0.7-0.4,1c-0.6,1-1,2.1-1.3,3.3c-0.4,2.1-0.6,4.3-0.9,6.4c-0.3,2.4,1.1,4.8,3.3,6.6
			c2.4,2.1,6,3.4,9.4,3.3C6299.7,166.7,6306.6,162.6,6305.9,157z"/>
		<path class="st8" d="M5705.6,440c20-8.8,50.2-15,75-12.6c-36.2-23.1-85.6-30-129.4-8.6c-27.9,13.6-46.9,36.7-48.3,62.8
			c-0.9,16.9,5.4,29,13.9,41.1C5628.7,488.1,5670.1,455.6,5705.6,440z M5670.7,427.7c0.3,0,0.6,0,0.9,0c4.9-0.3,8.7,3.4,8.9,7
			c0.3,3.6-4.3,7.3-8.9,7c-0.3,0-0.6,0-0.9,0c-4.9-0.3-8.6-3-8.9-7C5661.6,430.8,5666,427.9,5670.7,427.7z M5647.7,458.4
			c-3.2,1.5-5.8,3.5-7.7,6c-2.7,3.5-4.2,6.6-8.7,9c-3.8,2-8.5,0.4-10.8-2.2c-8.7-9.8,6.2-23.1,15.6-28.6c5.1-3,13-0.6,15.8,3.3
			C5655,450.2,5653,455.9,5647.7,458.4z"/>
		<path class="st12" d="M5649,33.8c0,1.6,0,3.2,0,5c0.1,6.7,2.5,15.6-0.5,21.8c-5.7,11.9,25.8,12.1,17.1-1.8
			c-1.8-2.8-2.2-6.8-2.3-10.8c-0.1-3.3,0-6.7-0.3-9.3c-0.3-2.1-0.4-4.1-0.8-6c0,0,0-0.1,0.1-0.1c-2.3-0.9-4.1-2.4-4.6-4.6
			c-3.5-2.5-5.4-6.6-2.8-11c1.1-1.9,2.3-3.6,3.4-5.4c0.1-2.5,0.3-5.4,0.3-7.4h-30.7c3.5,7,8.4,14.3,14.2,21
			C5641.6,28.9,5644.8,32.1,5649,33.8z"/>
		<path class="st13" d="M5654.9,17c-2.7,4.4-0.8,8.5,2.8,11c0.5,2.2,2.3,3.7,4.6,4.6c5.7,2.2,14.4,0.1,14.6-6.5
			c0-1.5,0.1-2.8,0.1-4.3c3.2-5.4,6.1-11.6,8.4-17.6h-26.7c-0.1,2-0.1,4.9-0.3,7.4C5657.3,13.5,5656.2,15.2,5654.9,17z"/>
		<path class="st13" d="M5869.6,62.7c-0.6,1.4-1.4,2.7-1.9,4.1c-1.4,3.3,0.8,6.2,4.1,7.9c-2.5-2.6-3.4-5.9-0.4-9.4
			c17.6-20,33.9-41,50.7-61h-39C5868.3,21.2,5862.1,42.1,5869.6,62.7z"/>
		<path class="st13" d="M5961.5,264.9c7.6,0,11.1-4.8,10.8-9.4c1.9-1.4,3-3.5,3-6.1c-0.1-16.6-6.6-32.2-19.4-45.5
			c-10.4-10.8-29.8-25.3-48.5-23.8c-1.4,0.1-2.7,0.5-3.8,1c-3.3,1.6-4.9,4.7-3.4,7.6c-17.6,21.9-4.8,49,19.6,64.3
			c9.6,6,21,10.2,33.2,11.5C5956,264.7,5958.8,264.9,5961.5,264.9z M5942.4,228.5c-4.9,2.5-11.3,0.6-14.2-2.9
			c-4.1-4.9-8-9.6-10.6-15.1c-1.4-2.9,0.9-6.6,4.2-8.1c3.5-1.6,8-1.1,11,1.1c5.4,4,9.2,9,13.4,13.8
			C5949.4,221.1,5946.9,226.3,5942.4,228.5z"/>
		<path class="st12" d="M5871.7,74.6c0.9,0.9,2.2,1.8,3.4,2.4c0.9,3.4,4.4,6,9.6,4.4c3.5-1.1,6.8-2.2,10.3-3.5
			c36.4-14.6,61.4-42.6,66.6-73.6H5922c-16.7,20-33.1,41-50.7,61C5868.3,68.7,5869.1,72,5871.7,74.6z M5942.4,7.2
			c-0.4,1.5-0.9,3-1.3,4.5c-1.3,1-2.4,2.1-3.7,3.1c-0.1-0.2-0.4-0.3-0.6-0.4C5938.6,12,5940.5,9.6,5942.4,7.2z"/>
		<path class="st12" d="M5932.7,203.5c-2.9-2.2-7.5-2.8-11-1.1c-3.3,1.5-5.6,5.1-4.2,8.1c2.7,5.6,6.6,10.2,10.6,15.1
			c2.9,3.6,9.4,5.4,14.2,2.9c4.4-2.3,7-7.4,3.7-11.2C5942,212.5,5938.1,207.5,5932.7,203.5z"/>
		<path class="st12" d="M5336.6,510.9c1.6,0.1,3.3,0.2,5.1,0.2c4.2,0,6.8-1.7,8.2-4c2-1.1,3.5-2.7,4.2-4.5c0.8-1.8,0.6-3.9-0.9-5.8
			c-0.5-0.6-1-1.2-1.8-1.8c-13.2-9.6-24.8-19-34.5-31.1c-6.8-8.4-12-17.5-17.6-26.4c-0.8-1.2-1.5-2.4-2.3-3.6c0-0.1,0.1-0.2,0.1-0.2
			c1.6-3-1.6-6.3-5.1-5.8c-3.8-1.8-9.2,1.4-8.6,5.3c0.1,0.4,0.3,0.8,0.3,1.2C5255,466.2,5290.3,507.6,5336.6,510.9z M5302.8,482.8
			c-3.5-3.4-6.2-7.3-8.1-11.5C5297.5,475.1,5300.1,478.9,5302.8,482.8z"/>
		<path class="st13" d="M6000.8,546.9c0.6,0.1,1.3,0.2,1.8,0.2c45.3,5.7,86,12.9,127.3,29.9c2.5,1,5.1,1.3,7.2,1.1
			c2.3-0.3,4.3-1.1,6.1-2.2c8.9,1.5,19-5.4,12.9-13.2c-16-20-41.8-36.1-72.1-39.5c-21.3-2.4-50-0.9-69,9.4c-3.2-0.1-6.2-0.1-9.4,0
			C5995.7,529.9,5988.1,545.4,6000.8,546.9z"/>
		<path class="st13" d="M5624.8,118.7c-3.7-1-7.9-1.3-12.3-0.8c-1.5,0.2-2.8,0.9-3.5,1.9c-4.3,1.1-7.5,4.9-6.5,8.9
			c1.6,7,7.2,12.8,12.3,18.6c4.6,5.3,8.2,11.3,15.3,14.4c4.9,2.7,12.8,2.8,16.8-1.2c1.4-1.4,2.3-3.2,2.5-5.6
			C5650.9,141.2,5641.9,123.1,5624.8,118.7z"/>
		<path class="st12" d="M5564.2,227.5c7.5-29.7-16.6-57.6-52.6-64.6c-2.7-0.5-5.4-0.9-8.2-1.2c-6.3-0.6-12.4,4.5-12.9,9.5
			c-2.8,1.8-4.6,4.6-3.5,7.5c7.9,21.6,30.5,40.1,54.1,52.4c1.6,0.8,3.2,1.6,4.8,2.4c0.4,0.2,0.8,0.3,1.1,0.5c1.9,0.7,3.9,0.9,6,0.8
			C5558,234.5,5563.2,231.8,5564.2,227.5z"/>
		<path class="st12" d="M5977.8,109.7c-2.7,1.8-2.9,5.3-1.3,7.6c1.9,2.5,5.4,3.4,9,2.9c1.6-0.2,2.3-0.2,3.7-0.1
			c2.2,0.1,3.3-0.1,5.3-0.5c2.9-0.6,5.7-1.5,8.5-2.3c4.9-1.4,8.5-4.6,9.1-8.3c0.3-1.6,0-3.3-0.9-5.1c-2.8-5.2-11.4-8.1-17.9-4.7
			c-2.9,1.5-5.8,3.1-8.6,4.8c-1,0.6-1.9,1.3-2.7,2C5980.7,107.2,5979.4,108.5,5977.8,109.7z"/>
		<path class="st7" d="M5771.6,534.9c15.5-11.4,32.6-25.6,42.8-41.5c1.1-7,1.5-14.1,2.7-21.1c-0.6-7.6,0.1-15.4-1.9-23
			c-2.9-10.6-8.7-20.9-16.5-29.8c-20.1-22.9-50.7-28.4-83.3-32.7c-1.6-0.2-2-1.5-1.4-2.5c-29.5-0.8-59.5,5.8-85.9,21.3
			c-4.1,2.4-7.9,4.9-11.4,7.6c-23.9,17.8-38.1,42-38.8,68.4c-0.1,5.4,0.4,11.3,1.5,17.3c3.9,19.9,15.1,41.2,35.2,52.2
			c0.9,2.6,4.3,3.8,7.5,3.4c0.8,0.3,1.4,0.6,2.2,0.9c1,0.3,1.9,0.4,2.8,0.4c7.1,15.3,26,26.2,55.5,21.5c0.5-0.1,1-0.1,1.5-0.2
			C5716.5,571.4,5747.7,552.6,5771.6,534.9z M5616.8,522.8c-8.5-12.1-14.8-24.3-13.9-41.1c1.4-26.1,20.5-49.2,48.3-62.8
			c43.7-21.4,93.2-14.5,129.4,8.6c-24.8-2.3-55,3.8-75,12.6C5670.1,455.6,5628.7,488.1,5616.8,522.8z M5656.8,549.5
			c-2.5-0.2-5.1-0.6-7.6-1.1c-5.4-1.1-8.5-5.1-9-9.3c-1.6-17.5,8.4-43.5,30.4-51.2c2.3-2.2,4.7-4.4,7.5-6.6
			c22-17.6,64.1-41.7,97.8-34.9c59.3,12-21.3,71.8-42.1,84c-14.8,8.7-31.9,17.8-49.7,22.2C5674.2,555.1,5662.8,554.6,5656.8,549.5z"
			/>
		<path class="st7" d="M5708.9,500.8c15.2,0,15.2-17.7,0-17.7C5696.2,483.1,5696.2,500.8,5708.9,500.8z"/>
		<path class="st7" d="M5736.7,511.2c13.9,0,13.9-17,0-17C5724.1,494.2,5724.1,511.2,5736.7,511.2z"/>
		<path class="st7" d="M5758.3,480.8c15.2,0,15.2-16.3,0-16.3C5745.6,464.5,5745.6,480.8,5758.3,480.8z"/>
		<path class="st4" d="M6199.8,156c9.9-15.4,23.4-33.5,39.6-48.3c0.1-0.2,0.1-0.4,0.3-0.5c6.8-8.9,16.5-17.3,27.5-24.2
			c0.8-10.7,1.1-21.3,1.4-31.5c0.4-14.5,0.1-29.1-0.8-44c-11.4,0-22.8-1.3-34.1-3.3h-22.4c0.1,2,0.3,4.1,0.5,6.3
			C6211.3,59.2,6207.5,107.7,6199.8,156z"/>
		<path class="st4" d="M5821.6,158.6c17.7,0,17.7-20.2,0-20.2C5807.7,138.3,5807.7,158.6,5821.6,158.6z"/>
		<path class="st4" d="M5478.6,99.8c6.6,0,13-4.6,12.7-10c-0.3-5.4-5.6-10-12.7-10c-6.6,0-13,4.6-12.7,10
			C5466.2,95.2,5471.4,99.8,5478.6,99.8z"/>
		<path class="st4" d="M5662.1,248.1c-1.5,0.2-3,0.8-4.4,1.3c-7.5,2.6-7.5,13.1,0,15.6c1.4,0.5,2.9,1.1,4.4,1.3
			c4.2,0.5,8.6,0.2,11.7-2.4c2.2-1.9,3.5-4.1,3.5-6.7c0-2.4-1.4-5-3.5-6.7C5670.5,248,5666.4,247.5,5662.1,248.1z"/>
		<path class="st8" d="M5733.9,530.4c20.8-12.2,101.3-72,42.1-84c-33.6-6.8-75.7,17.3-97.8,34.9c-2.7,2.1-5.1,4.3-7.5,6.6
			c-22.2,7.7-32.2,33.7-30.4,51.2c0.4,4.2,3.5,8.2,9,9.3c2.5,0.5,5.1,0.8,7.6,1.1c6,5.1,17.4,5.6,27.5,3.1
			C5702,548.2,5719.1,539.1,5733.9,530.4z M5758.3,464.5c15.2,0,15.2,16.3,0,16.3C5745.6,480.8,5745.6,464.5,5758.3,464.5z
			 M5736.7,494.2c13.9,0,13.9,17,0,17C5724.1,511.2,5724.1,494.2,5736.7,494.2z M5708.9,483.1c15.2,0,15.2,17.7,0,17.7
			C5696.2,500.8,5696.2,483.1,5708.9,483.1z"/>
		<path class="st10" d="M5980.4,106.3c0.5-0.2,1-0.3,1.6-0.3c0.8-0.7,1.6-1.4,2.7-2c2.8-1.7,5.7-3.2,8.6-4.8
			c6.3-3.3,15.1-0.4,17.9,4.7c0.9,1.7,1.1,3.5,0.9,5.1c3.5,1.1,6.6,3.7,7.5,6.5c1.5,4.4-1.1,8.5-5.7,11c-6,3.3-15.2,3.1-21.9,1.8
			c-3.3-0.6-6.6-1.7-9.4-3.1c-2.5-1.2-4.6-3-6-4.6c-6.1,21.9-13.6,43.5-22.4,64.8c24.6,16.6,33.8,50.2,22.4,72.8
			c-4.2,8.2-15.8,9.5-23.4,6.3c-12.2-1.3-23.6-5.5-33.2-11.5c-18.1,29.5-39.5,57.1-63.5,84c-9.8,2.6-19.8,4.6-29.9,5.9
			c-24.3,3.3-46.5,0.9-69.4-2.1c10.6,3.2,21.2,7,31.5,11.3c20.8,8.6,40,19,57.2,31.5c4.7,3.4,9.2,7.1,13.8,10.8
			c2.5,0.3,5.1,1.3,7.2,3.1c30.9,25.9,68.4,34.4,104.9,30.6c50.9-45.5,74.6-106.8,95.9-164.2c23.6-63.8,39.5-129.2,46.9-195.5
			c2.4-21.4,3.8-43.2,4.6-64.2h-121c-0.9,9-1.9,17.6-3.2,26.4C5991.7,56.1,5986.9,81.2,5980.4,106.3z"/>
		<path class="st3" d="M5635.9,442.6c-9.4,5.5-24.2,18.8-15.6,28.6c2.4,2.7,7,4.2,10.8,2.2c4.6-2.3,6.1-5.5,8.7-9
			c1.9-2.5,4.4-4.5,7.7-6c5.3-2.6,7.3-8.2,4.2-12.5C5649,442,5641,439.6,5635.9,442.6z"/>
		<path class="st3" d="M5670.7,441.7c0.3,0,0.6,0,0.9,0c4.7,0.2,9.1-3.4,8.9-7s-3.9-7.3-8.9-7c-0.3,0-0.6,0-0.9,0
			c-4.6,0.2-9.1,3-8.9,7C5662.1,438.7,5665.8,441.4,5670.7,441.7z"/>
		<path class="st3" d="M5434.4,275.6c-24.2-11.8-16.6-52.6-14.9-71.2c1.8-19.3,13.9-43.3,4.1-61.5c-0.5-1-2.5-1.3-3.5-0.7
			c-27.1,15.9-25.7,62.8-26.1,86.9c-0.4,22.9-0.9,51.3,27.6,64.2C5435.8,299.7,5448.4,282.5,5434.4,275.6z"/>
		<path class="st3" d="M5465.4,294c-3-0.4-6,0-8.4,0.9c-3.2,0.7-5.7,2.6-6.7,5.2c-1.3,3.7,0.3,7,2.9,10c3.5,4,9.9,5.8,15.6,3.2
			c4.8-2.2,7.1-6.4,6.3-10.6C5474.5,298.8,5470.6,294.6,5465.4,294z"/>
		<path class="st3" d="M6267.4,331.7c19.6-30.8,49.5-74,40-109.3c-0.1-0.7-1.5-1-2.2-0.4c-12.8,12.5-17.4,26.6-24.6,41.4
			c-9.8,20.2-20.6,39.9-33.1,59.1C6241,333,6260.8,342.1,6267.4,331.7z"/>
		<path class="st3" d="M6238.2,366.8c6.2,0,12.2-4.3,11.9-9.4c-0.3-5.1-5.2-9.4-11.9-9.4c-6.2,0-12.2,4.3-11.9,9.4
			C6226.5,362.5,6231.5,366.8,6238.2,366.8z"/>
	</g>
	<g>
		<path class="st1" d="M1335,1973.3c9-10.6-4.3-25.5-20.1-21.7c-2.2,0.5-3.7,1.4-4.7,2.6c-1.1-0.1-2.3,0.1-3.3,0.4
			c-1.9,0.7-3.4,2.2-3.5,4c-0.4,4.2,2.4,8,6.1,11.1c1.5,1.2,3.2,2.3,4.8,3.2C1320.3,1976.1,1330,1979.1,1335,1973.3z"/>
	</g>
	<g>
		<path class="st1" d="M181.5,1072.6c1.8-0.6,3.4-1.7,4.3-2.9c2-2.8,1.4-5.7-0.8-7.9c0.4-0.6,0.6-1.3,0.8-2.1
			c0.5-4.7-4.3-9.3-8.5-12.3c-4.6-3.3-10.1-5.5-16.2-6.6c-1.4-0.2-2.5-0.2-3.7,0c-3,0.6-4.9,2.8-5.4,5.5c-0.3,1.2-0.1,2.4,0,3.6
			c-0.4,0.4-0.8,0.7-1.1,1.1c-2.8,3.7-0.8,7.7,3.3,10.1c6.3,3.7,12.7,7.4,19,11.1C175.6,1073.7,178.8,1073.6,181.5,1072.6z"/>
	</g>
	<g>
		<path class="st1" d="M5044.2,97.7c-13.4,8.8-11,25.5,2.3,33.3c3.2,1.8,6.6,3,10,3.5c10.5,1.5,21.8-2.6,27.9-10.1
			c9.1-11.5,0-25.6-15.1-29.9c-5.3-1.5-10.6-1.4-15.6-0.2c-0.1,0-0.3,0-0.3,0.1C5050.1,94.7,5046.7,96,5044.2,97.7z"/>
	</g>
</g>
<g>
	<path class="st14" d="M2529.4,27.1c0,0,10.8-44.4,55.6-39.1c37.5,4.4,35,40.7,35,40.7s64.1-35.2,93.6,34.7
		c10.8,25.7-6.7,53.9-6.7,53.9s39.7,15,35,40.7c-5.1,28.1-30.5,34.3-26.2,38.4c25,24.4-0.9,87.6-65.4,79.9
		c-62.9-7.5-65.3-49.6-65.3-49.6l-50.1,48.2l-70.8-58.5l45.6-55.5c0,0-85-24.9-65.4-94.3C2464.3-2.5,2512.7,20,2529.4,27.1z"/>
	<path class="st15" d="M2581,115c0,0,36.3-30.8-8.7-66.9c-24.6-19.7-39.9,12.1-39.9,12.1s-27.1-12-44.6,12.4
		c-32.3,44.8,31.1,95.4,70.4,86.2c6.5-1.5,2.1,23.7,23.1,25.5c42.2,4,63.4-26.5,50.7-51.1C2629.3,128,2611.8,96.1,2581,115z"/>
	
		<ellipse transform="matrix(0.852 -0.5236 0.5236 0.852 274.7584 1415.2927)" class="st15" cx="2640.4" cy="221.7" rx="28.7" ry="28.7"/>
	<line class="st16" x1="2542.5" y1="153.7" x2="2482.3" y2="229.9"/>
	<line class="st16" x1="2570.6" y1="179.2" x2="2511.7" y2="252.6"/>
	
		<ellipse transform="matrix(0.852 -0.5236 0.5236 0.852 335.799 1389.9203)" class="st15" cx="2626" cy="101.1" rx="11.6" ry="11.6"/>
	
		<ellipse transform="matrix(0.852 -0.5236 0.5236 0.852 312.9344 1430.043)" class="st15" cx="2685.6" cy="161.6" rx="11.6" ry="11.6"/>
	
		<ellipse transform="matrix(0.852 -0.5236 0.5236 0.852 360.6181 1377.4648)" class="st15" cx="2616.4" cy="51" rx="14.8" ry="14.8"/>
	<path class="st17" d="M2662,40.3c17.1-0.5,43,45.8,11.9,59.9"/>
	
		<ellipse transform="matrix(0.852 -0.5236 0.5236 0.852 369.9612 1346.8331)" class="st3" cx="2566.9" cy="19.1" rx="10.6" ry="12.7"/>
	
		<ellipse transform="matrix(0.852 -0.5236 0.5236 0.852 328.5692 1422.4739)" class="st3" cx="2680" cy="130.1" rx="10.6" ry="9.5"/>
</g>
<g>
	<path class="st18" d="M1816.3,1856.4c0,0-45.4-10.7-36.4-55.3c7.5-37.4,45.4-35.1,45.4-35.1s-31.5-63.8,43.7-93.4
		c27.7-10.9,55.8,6.5,55.8,6.5s18.9-39.7,45.4-35.1c28.9,5,33.3,30.2,38.1,25.9c27.6-25,91.5,0.5,78.3,64.8
		c-12.9,62.7-57,65.3-57,65.3l46.3,49.7l-66.8,70.9l-54.2-45.3c0,0-32.9,84.9-103.7,65.6C1780.2,1921.7,1807.5,1873.2,1816.3,1856.4
		z"/>
	<path class="st15" d="M1912.2,1804.7c0,0-29.1-36-70.5,9c-22.6,24.6,9.4,39.7,9.4,39.7s-14.7,26.9,9.4,44.4
		c44.1,32,102.1-31.4,95.7-70.6c-1.1-6.5,24.8-2.2,28.6-23.2c7.5-42.1-22.6-63.1-49.3-50.4
		C1929.7,1756.3,1894.9,1774.1,1912.2,1804.7z"/>
	
		<ellipse transform="matrix(0.871 -0.4913 0.4913 0.871 -595.705 1221.6486)" class="st15" cx="2028.3" cy="1745.1" rx="30.6" ry="27.9"/>
	<line class="st19" x1="1949.4" y1="1842.9" x2="2024.2" y2="1902.6"/>
	<line class="st19" x1="1978.3" y1="1814.7" x2="2050.2" y2="1873.2"/>
	
		<ellipse transform="matrix(0.871 -0.4913 0.4913 0.871 -619.3896 1161.0984)" class="st15" cx="1901.2" cy="1760" rx="12.5" ry="11.4"/>
	
		<ellipse transform="matrix(0.871 -0.4913 0.4913 0.871 -581.2794 1186.8059)" class="st15" cx="1969.2" cy="1700.2" rx="12.5" ry="11.4"/>
	
		<ellipse transform="matrix(0.871 -0.4913 0.4913 0.871 -631.0547 1136.2729)" class="st15" cx="1848.1" cy="1769.8" rx="15.9" ry="14.4"/>
	<path class="st20" d="M1840.7,1724.1c0.8-17,51.2-43.1,63.5-12.1"/>
	
		<ellipse transform="matrix(0.871 -0.4913 0.4913 0.871 -660.1155 1124.3694)" class="st3" cx="1810.9" cy="1819.1" rx="13.6" ry="10.3"/>
	
		<ellipse transform="matrix(0.871 -0.4913 0.4913 0.871 -588.4146 1171.2092)" class="st3" cx="1935.9" cy="1706" rx="10.2" ry="10.3"/>
</g>
<g>
	<path class="st21" d="M1025,377.4c0,0-50.4-11.9-40.4-61.4c8.3-41.6,50.4-39,50.4-39s-35-70.9,48.6-103.8c30.8-12.1,62,7.2,62,7.2
		s21-44.1,50.4-39c32.1,5.6,37,33.6,42.3,28.8c30.7-27.8,101.7,0.6,87,72c-14.3,69.7-63.3,72.6-63.3,72.6l51.4,55.2l-74.2,78.8
		l-60.2-50.3c0,0-36.6,94.3-115.2,72.9C984.9,449.9,1015.2,396,1025,377.4z"/>
	<path class="st15" d="M1131.6,319.9c0,0-32.3-40-78.3,10c-25.1,27.3,10.4,44.1,10.4,44.1s-16.3,29.9,10.4,49.3
		c49,35.6,113.4-34.9,106.3-78.4c-1.2-7.2,27.6-2.4,31.8-25.8c8.3-46.8-25.1-70.1-54.8-56C1151,266.1,1112.3,285.9,1131.6,319.9z"/>
	<ellipse transform="matrix(0.871 -0.4913 0.4913 0.871 37.9777 652.0182)" class="st15" cx="1260.5" cy="253.7" rx="34" ry="31"/>
	<line class="st22" x1="1172.9" y1="362.4" x2="1256" y2="428.7"/>
	<line class="st22" x1="1205" y1="331" x2="1284.9" y2="396"/>
	
		<ellipse transform="matrix(0.871 -0.4913 0.4913 0.871 11.6489 584.7679)" class="st15" cx="1119.3" cy="270.2" rx="13.9" ry="12.7"/>
	
		<ellipse transform="matrix(0.871 -0.4913 0.4913 0.871 53.9619 613.3234)" class="st15" cx="1194.8" cy="203.9" rx="13.9" ry="12.7"/>
	<ellipse transform="matrix(0.871 -0.4913 0.4913 0.871 -1.3161 557.188)" class="st15" cx="1060.3" cy="281.1" rx="17.7" ry="16"/>
	<path class="st23" d="M1052.1,230.4c0.9-18.9,56.9-47.9,70.6-13.4"/>
	
		<ellipse transform="matrix(0.871 -0.4913 0.4913 0.871 -33.6336 543.9413)" class="st3" cx="1018.9" cy="336" rx="15.1" ry="11.4"/>
	
		<ellipse transform="matrix(0.871 -0.4913 0.4913 0.871 46.0865 595.9427)" class="st3" cx="1157.8" cy="210.2" rx="11.3" ry="11.4"/>
</g>
<g>
	<path class="st3" d="M4844.7,421.5c-18.7-20.4-42.1-36.6-69.1-43.9c-12.3-3.2-25.3-4.6-38-3.1c-12.3,1.5-23.8,5.4-35.6,9
		c-10.3,3.2-21.4,6.6-32.3,5.3c-11.9-1.4-21-9.2-31.4-14.2c-12.5-5.9-26-6.2-38.1,1c-11.5,6.8-19.8,18.4-26,30.1
		c-6.4,12.3-11.6,26-21.9,35.7c-9.3,8.7-21.9,9-33.8,8.8c-13.7-0.2-26.9-0.3-40.1,4.1c-13.1,4.3-25.1,10.7-35.7,19.8
		c-17.3,14.9-28.1,36-30.8,58.4c-30.6,38.5-21,95.6,7.9,132.3c18.7,23.8,43.6,41.4,69.9,55.9c25,13.7,52.9,23.4,75.3,41.3
		c11.3,8.9,19.7,19.5,26.2,32.3c6.8,13.2,12.6,27,22.5,38.2c17.5,19.8,44.2,21.3,68.3,15.5c12-3,23.5-7.6,34.9-12.5
		c15-6.4,29.9-13.5,43.7-22.3c23.8-15,44.9-35.6,55.4-62.1c4.8-12,7.6-24.6,7.2-37.5c-0.4-12-4.6-23.4-4.5-35.3
		c0-4.6,1.2-9,4.5-12.7c4-4.4,9.6-6.4,15.1-8.2c13.2-4,27-5.8,39-13.1c22.3-13.5,35.1-39.4,37.8-64.9c3-28.8-6.7-56.9-19.6-82.3
		C4881.8,470.3,4865.1,443.7,4844.7,421.5z M4845.8,626.2c-3.3-0.8-3.7-5.8-0.3-6.8c2-0.5,4.8-2.6,7.1-4c2.7-1.7,4.7-3.6,6.6-6.2
		c4.3-5.6,14,1.2,10.2,7.1c-2.6,4-6.2,7.3-10.6,9.3C4854.2,627.9,4850.5,627.3,4845.8,626.2z M4806.7,535.2
		c2.6,40.1-15.6,77.9-37.5,110.3c-12.5,18.4-26.9,36.2-45.9,48.2c-17.5,11-37.8,15.9-58.2,17.3c-37.6,2.6-78.1-4.5-110.3-25
		c-16-10.2-29.9-23.5-39.9-39.7c-4-6.4-7.3-13.4-10-20.6c-11.1-22.9-13.4-51.2-0.8-73.9c14.7-26.9,45.8-41.6,75.6-42.2
		c27.9-0.6,54.5,9.5,78.1,23.4c3.5-28.6,13.9-58.7,37.5-76.2c20.8-15.5,50.5-18.9,71-1c5.7,5,10.3,11,13.9,17.6
		c1.2,1.2,2.5,2.6,3.6,4C4797.9,493.5,4805.3,513.8,4806.7,535.2z M4685.7,824.4c-4.1,0-8.4-0.1-12.5-1.1c-2-0.5-3.8-1.2-5.7-2
		c-2-0.8-3.5-2.1-5.3-3.1c-2.7-1.5-2.1-6.4,1.4-6.3c3.5,0.2,7.2-0.6,10.7-0.5c3.6,0.1,7.3,0.3,11,0.1c6.8-0.3,13.5-1.7,19.9-3.8
		c14.4-5,26.7-15.4,34.5-28.6c4.3-7.3,16.1-1.2,11.8,6.1c-9.3,16-23.9,28.3-41.4,34.7C4702.3,822.9,4694,824.4,4685.7,824.4z
		 M4769.4,762.8c-6.2,4.2-12.3-5.6-6.2-9.7C4769.4,748.9,4775.6,758.6,4769.4,762.8z M4620.3,406.7c0-0.1-0.1-0.1-0.1-0.2
		c-1.9-2.8,0.2-6.2,3.2-6.8c1.7-0.7,3.8-0.3,5.6,0.2c1.7,0.6,3.8,1.1,5.4,2c3.1,1.7,4.3,5.4,2.7,8.7c-1.6,3.3-5.6,4-8.7,2.7
		c-1.6-0.6-3.1-1.7-4.4-2.7C4622.4,409.6,4621,408.3,4620.3,406.7z M4418.5,615c-0.8-3.5-1.1-7.1-0.6-10.7c0.2-1.6,0.7-3,1.2-4.4
		c0.7-1.6,1.9-2.6,2.6-3.8c1.7-2.8,6.8-2.4,6.8,1.5c0,2.2,1,5,1.2,7.3c0.3,2.1,0.6,4.2,1.2,6.3c1.2,4.4,3.5,7.8,6.6,11.1
		c5.8,6.3-2.4,15.8-9,10C4423.5,628.1,4420,621.5,4418.5,615z"/>
	<path class="st3" d="M4593.3,686.3c-0.1-0.1-0.3-0.3-0.4-0.4c-0.9-0.2-1.7-0.4-2.5-0.6C4591.3,685.7,4592.3,686.1,4593.3,686.3z"/>
	<path class="st3" d="M4748.9,646.1c-4.2,5.2-8.5,10.3-12.7,15.5C4740.6,656.6,4744.9,651.4,4748.9,646.1z"/>
	<path class="st1" d="M4437.6,622.5c-3.1-3.3-5.4-6.7-6.6-11.1c-0.6-2.1-0.9-4.1-1.2-6.3c-0.3-2.4-1.2-5.1-1.2-7.3
		c0-3.8-5-4.3-6.8-1.5c-0.8,1.4-2.1,2.4-2.6,3.8s-1,2.8-1.2,4.4c-0.5,3.6-0.2,7.2,0.6,10.7c1.5,6.4,5,13,10,17.3
		C4435.2,638.1,4443.3,628.7,4437.6,622.5z"/>
	<path class="st1" d="M4751.5,785.3c4.3-7.3-7.4-13.4-11.8-6.1c-7.8,13.1-20.1,23.5-34.5,28.6c-6.4,2.2-13.1,3.5-19.9,3.8
		c-3.6,0.2-7.3,0-11-0.1c-3.5-0.1-7.3,0.7-10.7,0.5c-3.5-0.2-4.1,4.8-1.4,6.3c1.9,1,3.3,2.4,5.3,3.1c1.9,0.8,3.7,1.5,5.7,2
		c4,1,8.3,1.1,12.5,1.1c8.3-0.1,16.6-1.6,24.3-4.4C4727.5,813.6,4742.1,801.3,4751.5,785.3z"/>
	<path class="st1" d="M4763.3,753.2c-6.1,4.2,0,13.9,6.2,9.7C4775.6,758.6,4769.4,748.9,4763.3,753.2z"/>
	<path class="st1" d="M4869.4,616.5c3.8-5.9-5.9-12.7-10.2-7.1c-2,2.6-4,4.4-6.6,6.2c-2.4,1.4-5.2,3.3-7.1,4c-3.5,1-3.1,5.9,0.3,6.8
		c4.7,1.1,8.4,1.7,13-0.4C4863.3,623.9,4866.7,620.6,4869.4,616.5z"/>
	<path class="st1" d="M4628.4,413.4c3.1,1.2,7.2,0.6,8.7-2.7c1.6-3.3,0.4-6.9-2.7-8.7c-1.6-0.9-3.6-1.4-5.4-2
		c-1.7-0.6-3.8-0.9-5.6-0.2c-3.1,0.5-5.1,4-3.2,6.8c0,0.1,0.1,0.1,0.1,0.2c0.7,1.7,2.1,3,3.7,4
		C4625.3,411.7,4626.9,412.9,4628.4,413.4z"/>
	<path class="st1" d="M4780.3,473.3c10.2,18.8,12,42.7,9.7,63.3c-6.9,61.9-53.2,107.9-96,148.9c-2.1,2-4.7,2.8-7.3,2.5
		c-17.3,2.7-35.5,3.1-53,2.6c-13.7-0.4-27.5-1.6-40.9-4.3c0.1,0.1,0.3,0.3,0.4,0.4c-1-0.3-2-0.6-3-1c-3.6-0.8-7.2-1.7-10.7-2.7
		c-28.6-8.4-56.5-25.1-71.7-51.7c-1-1.7-2-3.6-2.8-5.5c2.6,7.2,5.9,14.1,10,20.6c10,16.2,23.9,29.5,39.9,39.7
		c32.2,20.5,72.7,27.6,110.3,25c20.4-1.4,40.7-6.4,58.2-17.3c19.1-12,33.4-29.7,45.9-48.2c21.9-32.4,40-70.2,37.5-110.3
		c-1.4-21.3-8.8-41.7-22.8-57.9C4782.8,475.8,4781.5,474.6,4780.3,473.3z M4736.1,661.6c4.2-5.2,8.5-10.3,12.7-15.5
		C4744.9,651.4,4740.6,656.6,4736.1,661.6z"/>
	<path class="st24" d="M4579.7,682.7c3.5,1.1,7.2,2,10.7,2.7c0.8,0.2,1.7,0.4,2.5,0.6c13.4,2.7,27.2,4,40.9,4.3
		c17.6,0.5,35.6,0.2,53-2.6c2.6,0.4,5.3-0.5,7.3-2.5c42.7-40.9,89-87,96-148.9c2.2-20.6,0.4-44.4-9.7-63.3
		c-3.5-6.6-8-12.5-13.9-17.6c-20.5-17.9-50.2-14.5-71,1c-23.4,17.6-34,47.7-37.5,76.2c-23.8-14-50.4-24-78.1-23.4
		c-29.9,0.6-60.9,15.3-75.6,42.2c-12.5,22.9-10.4,51,0.8,73.9c0.9,1.9,1.9,3.7,2.8,5.5C4523.1,657.7,4550.9,674.3,4579.7,682.7z
		 M4564.1,545.7c4-0.6,7.4,3.5,7.6,7.1c0.2,4.3-3.1,6.9-7.1,7.6c-13.7,2.1-25.7,10.9-31.6,23.5c-2.6,5.8-3.8,12.3-3.7,18.6
		c0.1,3.3,0.5,6.6,1.2,9.8c0.8,3.1,2.4,6.2,3,9.4c0.5,2.5-0.1,5-2.4,6.4c-2,1.2-5.2,1.2-6.8-0.6c-5.8-6.4-7.8-16.7-8-25.1
		c-0.3-8.4,1.4-17,4.8-24.6C4528.9,560.7,4545.8,548.7,4564.1,545.7z M4727.4,475.4c9.3-1.9,18.6,0.9,25.9,6.8
		c6.4,5.3-2.4,14.8-8.7,9.5c-4.1-3.5-9.6-5.2-15-4.3c-3.2,0.5-6.1,2.1-8.7,3.8c-2.6,1.7-5.3,3.1-7.8,4.9c-1.6,1.2-4.3-0.2-4.2-2.1
		c0.4-5,1.6-8.7,5.5-12.1C4718.1,478.6,4722.6,476.4,4727.4,475.4z M4603.2,547.6c-5.9,4-11.8-5.3-5.9-9.3
		C4603.3,534.2,4609,543.6,4603.2,547.6z"/>
	<path class="st3" d="M4516.5,602.5c0.3,8.4,2.2,18.6,8,25.1c1.6,1.7,4.8,1.7,6.8,0.6c2.2-1.4,2.8-4,2.4-6.4c-0.7-3.2-2.1-6.2-3-9.4
		s-1.2-6.4-1.2-9.8c-0.2-6.4,1-12.9,3.7-18.6c5.9-12.6,17.8-21.4,31.6-23.5c4-0.6,7.2-3.3,7.1-7.6c-0.1-3.6-3.6-7.7-7.6-7.1
		c-18.3,2.8-35.2,15-42.7,32.1C4517.9,585.6,4516.2,594.1,4516.5,602.5z"/>
	<path class="st3" d="M4597.2,538.3c-5.9,4,0,13.4,5.9,9.3C4609,543.6,4603.2,534.2,4597.2,538.3z"/>
	<path class="st3" d="M4709,494.1c-0.2,2.1,2.6,3.3,4.2,2.1c2.5-1.7,5.2-3.2,7.8-4.9c2.6-1.7,5.5-3.3,8.7-3.8
		c5.4-0.9,10.9,0.9,15,4.3c6.3,5.4,14.9-4.2,8.7-9.5c-7.3-6.1-16.5-8.7-25.9-6.8c-4.8,1-9.3,3.1-13,6.4
		C4710.5,485.3,4709.4,488.9,4709,494.1z"/>
</g>
<g>
	<g>
		<path class="st12" d="M5455.5,1192.3c5.2,14.1,17.7,22.3,32.5,21.8c10.6-0.3,19.5-4.7,28-10.1c-1.7,5.5-2.2,11.7-0.9,18.7
			c2.5,12.8,11.2,21.1,21.4,24.4c-8.7,21.2-6.8,46.8,15.2,57.7c2.1,2.1,5.1,2.9,7.8,2.4c-1-6.9-0.9-14.1,0.2-20.5
			c2.5-14.6,9.9-27.3,20.3-37c-8.5-3.2-16.1-9-21.4-16c-9.8-13.1-10.5-28.9-6.9-44.1c-21.1,0.6-43.5-7-55.7-24.2
			c-6-8.3-8-17.1-7.4-25.9C5465.4,1147.3,5445.3,1164.8,5455.5,1192.3"/>
		<path class="st12" d="M5576.1,1221.3c-2.2-4.7-3.7-9.6-4.5-14.6C5571.5,1211.9,5573.3,1217.1,5576.1,1221.3z"/>
		<path class="st12" d="M5520.5,1084c-5.4-4.3-11.5-7.3-18.5-7.4c-10.2,0-20.6,6.3-23.5,16.3c-3.3,11,4.4,22,15,24.9
			c0.4,0.1,0.8,0.2,1.3,0.3c2.8-5.8,6.4-11.4,10.2-16.5C5509.6,1095.3,5514.9,1089.4,5520.5,1084z"/>
		<path class="st12" d="M5624.2,1336.4c-0.4,0.4-0.7,0.9-1.1,1.2c-4,4.2-5.2,10.5-1.2,15.3c3.6,4.2,11,5.3,15.3,1.2
			c1.9-2,3.9-3.8,5.9-5.7c0.5-0.3,1-0.7,1.5-1.2c5.9-6.2,15-12.7,16.3-21.4c-1.8,0.6-3.5,1.1-5.3,1.7
			C5645.3,1330.6,5634.8,1333.7,5624.2,1336.4z"/>
		<path class="st13" d="M5948.8,1062.6l-9.6-25.5c-19.3,4.4-38.7,7.7-58.4,9.9c-29.6,3.3-59.3,3.5-88.9,1.4
			c-14-3.1-28.4-5.2-41.8-8.1c-22.8-4.9-45.6-10-68.5-14.5c-40.6-7.9-82.4-12.4-122.6-0.2c-9.8,2.9-6.8,18.8,3.1,15.8
			c29.3-9.1,59.2-8.6,89-4.9c-9.1,0.5-18.3,1.5-27.5,3.3c-4.1,0.8-8.7,1.8-13.7,3.1c-15.4,0.6-32.9,6.9-43,10.8
			c-6.1,2.4-12,5.2-17.7,8.5c-8,2-15.5,7.4-20.7,14.5c-2.8,2.3-5.4,4.7-8,7.2c-5.6,5.5-10.9,11.3-15.6,17.6
			c-3.8,5.2-7.4,10.8-10.2,16.5c-3.3,6.9-5.6,14.2-6.1,21.4c-0.5,8.7,1.5,17.5,7.4,25.9c12.3,17.2,34.7,24.9,55.7,24.2
			c-3.6,15.3-2.9,31,6.9,44.1c5.3,7.1,12.9,12.9,21.4,16c-10.5,9.6-17.8,22.4-20.3,37c-1.1,6.5-1.2,13.6-0.2,20.5
			c1.8,11.8,6.7,23.2,16,30.2c2.2,3.3,6,5.8,10.1,5.4c12.6-0.8,25.6-3.4,38.3-6.6c10.6-2.7,21.1-5.7,31.2-8.9
			c1.8-0.6,3.5-1.1,5.3-1.7c19.8-6.3,39.1-13.9,56.9-24.6c9-5.4,17.6-11.4,25.5-18.3c-5.4,9.9-11.9,19.3-19.9,28.2
			c-9.1,10.3-19.5,19.4-30.7,27.4c-11.1,8-24.2,13.8-34.2,23.2c-1.4,1.2-0.8,3.9,1.3,4c23.3-0.1,46.1-17.9,62.5-33
			c19.7-18.2,35.4-40.7,46.6-65c4.3-9.2,7.5-18.9,10.1-28.7c7.3-13.4,13.3-27.4,19.8-41.1c20-42.4,48-78.8,86.4-106.3
			 M5880.9,1079.3c-41.7,18.6-74.7,46.1-103.7,81c-26,31.3-49.5,65-79.9,92.3c-27.1,24.4-56.1,38.3-92.4,42.2
			c-1.7,0.2-2.2-2.2-0.5-2.6c38.4-9,73.3-38,99.8-66.1c29.2-31,52.8-66.8,82.2-97.5 M5844,1064.3c-58.8,25.4-114.7,60.6-175,82.6
			c-3.1,1.2-6.4-3-3.3-5.3c51.5-39.3,117.1-59.6,178-78.7C5844.3,1062.8,5844.7,1064.1,5844,1064.3z M5598.8,1144.1
			c0.9,4.8-2.4,9.3-7.1,10.4c-7.9,1.7-16.7,4.5-24.7,1.9c-4.3-1.4-4.7-6.6-1.9-9.5c5.9-6,15.4-7.5,23.2-9.7
			C5593.1,1135.8,5597.9,1139.7,5598.8,1144.1z M5620.6,1063.7c12.8-2.3,25.5-3.5,38.4-3.7c25.7-0.5,53.5,1.4,75.7,15.2
			c2,1.3,0.6,4.1-1.4,4.1c-25.1,0.6-50-4.6-75.4-3.6c-14.1,0.5-28.2,2.4-42,5.3c-9.8,2.1-18.4,5.6-28.3,3.5c-4-0.8-3.8-5.9-1.7-8.3
			C5594.2,1067.4,5609.2,1065.8,5620.6,1063.7z M5597,1194.3c4.1-3.8,10.8-2.4,13.7,2c3.1,4.8,1.1,10.6-3.7,13.3
			c-5.7,3.1-12,7.4-18.8,5.9c-2-0.4-3.5-3-3.3-5C5585.5,1203.7,5592.4,1198.6,5597,1194.3z M5571.5,1206.7c0.9,5,2.4,9.9,4.5,14.6
			C5573.3,1217.1,5571.5,1211.9,5571.5,1206.7z M5743.6,1236.1c4,1.1,5.8,5.1,5.9,8.8c0.1,2.9-1.9,6.4-3.2,9c-1.3,2.5-3,4.7-5.7,5.8
			c-2.3,1-5.9,0.7-7.4-1.5c-1.9-2.9-2.4-5.7-2.2-9.1c0.2-3.2,0.7-7,2.6-9.6C5735.9,1236.2,5739.9,1235.1,5743.6,1236.1z"/>
		<path class="st12" d="M5786.4,1128.4c-29.5,30.7-53.1,66.6-82.2,97.5c-26.5,28.1-61.4,57.2-99.8,66.1c-1.6,0.4-1.2,2.7,0.5,2.6
			c36.3-3.9,65.2-17.7,92.4-42.2c30.5-27.4,54-60.9,79.9-92.3c29-34.9,62-62.4,103.7-81"/>
		<path class="st12" d="M5588.2,1215.6c6.7,1.5,13.1-2.8,18.8-5.9c4.8-2.7,6.8-8.5,3.7-13.3c-2.9-4.4-9.5-5.8-13.7-2
			c-4.6,4.3-11.5,9.4-12.2,16.2C5584.6,1212.5,5586.1,1215.1,5588.2,1215.6z"/>
		<path class="st12" d="M5567.1,1156.4c8,2.6,16.7-0.2,24.7-1.9c4.7-1,7.9-5.6,7.1-10.4c-0.9-4.4-5.8-8.3-10.4-7
			c-7.8,2.1-17.4,3.6-23.2,9.7C5562.4,1149.7,5562.7,1154.9,5567.1,1156.4z"/>
		<path class="st12" d="M5731,1249.1c-0.3,3.5,0.2,6.2,2.2,9.1c1.6,2.3,5.1,2.6,7.4,1.5c2.7-1.2,4.3-3.4,5.7-5.8
			c1.3-2.6,3.3-6,3.2-9c-0.2-3.8-2-7.7-5.9-8.8c-3.7-1.1-7.7,0.1-10,3.3C5731.7,1242,5731.2,1245.9,5731,1249.1z"/>
		<path class="st12" d="M5669,1147c60.3-22,116.2-57.1,175-82.6c0.7-0.3,0.3-1.6-0.5-1.3c-60.9,19.1-126.5,39.4-178,78.7
			C5662.6,1144,5665.8,1148.1,5669,1147z"/>
		<path class="st12" d="M5587.6,1084.6c9.9,2.1,18.6-1.5,28.3-3.5c13.8-2.9,27.9-4.7,42-5.3c25.3-1,50.2,4.1,75.4,3.6
			c2,0,3.4-2.8,1.4-4.1c-22.2-13.8-50-15.7-75.7-15.2c-12.9,0.2-25.7,1.4-38.4,3.7c-11.4,2.1-26.4,3.6-34.6,12.4
			C5583.8,1078.6,5583.5,1083.6,5587.6,1084.6z"/>
	</g>
	<g>
		<path class="st8" d="M5890.7,1096.4c-1.8-4.1,2.4-8.9,6.6-6.3c13.6,8.6,19.2,23.4,36.3,19.3c4-1,16.2-0.7,19.9-2.4
			c-1.1-2-5-14.4-5.6-16.5c-1.1-3.6-2-7.4-2.9-11.1c-1.3-5.3,2.5-10.6,7.8-11.1c6-0.7,9.5,3.7,10.2,9.1c0.4,3.5,1.3,7.9,1.4,12.1
			c1.4-0.9,3.2,8.5,5,8.8c20.9,3.5,50.7-17.9,54.3-31.8l7.2-22.6c-4.1,5.8,5-16.1,1.8-41.9c-2.3-18.8-17.5-36.6-17.5-36.5
			c-3.7,19.9-18.7,11.3-18.5,10.3c-34-20.4-53.6,6.8-58.7,7.2c-57,4.9-56.9,41.3-59.1,44.8c-13.7,20.6-4,29.1,2.1,42.9
			c0.5,1.2,0,2.7,0.2,4.1c0.5,5.6,2.4,11,5.3,15.8"/>
		<path class="st7" d="M5890.8,1096.4c9.9,21.9,46.2,26.1,65.6,21.2c12.3-3.1,26-2.5,51-22.1c11.6-9.2,20.1-29.6,21.4-34.2
			c8.2-28.8-13.6-66.7-13.7-66.7c3.4,19.7,11.4,47.7,4.8,62.1c-8.1,17.6-11.1,17.4-11.4,16.1c-1-4.4-8.7-16.9-11.6-20.3
			c-7.7-8.8-17.5-1.1-7.8,13.5c7.9,11.9,3.1,17.3,4.4,19.5c-12.1,12.3-21.9,10.3-23.4,11.2c-0.1-4.2-6.7-16.2-7.2-19.7
			c-0.6-5.4-4.2-9.8-10.2-9.1c-5.3,0.7-9.1,5.8-7.8,11.1c0.9,3.7,1.7,7.5,2.9,11.1c0.7,2.2,2.4,8.8,3.6,10.8
			c-3.7,1.8-9.4,3.2-13.6,3.4c-23.2,0.9-26.9-5.9-40.5-14.5C5893.1,1087.4,5888.9,1092.3,5890.8,1096.4"/>
		<path class="st7" d="M5914.9,1011.6c2.7,2.7,5.8,4.9,8.7,7.6c3.9,3.7,12-0.2,9.6-5.8c-1.7-3.9-2.7-8-4.5-11.8
			c-1.8-3.7-3.7-7.5-5.8-11.1c-1.3-2.4-3.4-3.7-5.8-4.5c-3.1-0.8-6.7-0.2-9.2,1.9c-5,4-4.8,10.6-0.7,15.2c0.1,0,0.1,0.2,0.2,0.2
			C5909.7,1006.1,5912.2,1009,5914.9,1011.6z"/>
	</g>
</g>
<g>
	<g>
		<path class="st12" d="M3609.8,1597.7c-10.8-10.4-25.6-12.4-38.8-5.6c-9.4,4.8-15.5,12.7-20.9,21.2c-0.8-5.7-3.1-11.5-7.3-17.2
			c-7.8-10.5-19.2-14.2-29.8-12.7c-1.3-22.9-14.1-45.1-38.7-45.4c-2.8-1-5.8-0.4-8.1,1.2c3.9,5.8,6.9,12.3,8.7,18.6
			c4.1,14.2,2.9,28.9-2.3,42.1c9-0.8,18.4,1.1,26.2,5.2c14.5,7.6,22,21.5,25.3,36.8c18.7-9.7,42.3-12.5,60.7-2.3
			c9,4.9,14.6,12,17.9,20.1C3620.4,1642.6,3630.9,1618.1,3609.8,1597.7"/>
		<path class="st12" d="M3488.6,1623.8c4,3.3,7.5,7.1,10.4,11.2C3496.8,1630.3,3492.9,1626.4,3488.6,1623.8z"/>
		<path class="st12" d="M3598.1,1723.5c6.7,1.5,13.5,1.6,19.9-1.4c9.2-4.4,15.8-14.6,14.1-24.9c-1.8-11.3-13.5-17.9-24.3-15.9
			c-0.4,0.1-0.8,0.2-1.3,0.3c0,6.4-0.8,13-2,19.3C3603.1,1708.6,3600.9,1716.2,3598.1,1723.5z"/>
		<path class="st12" d="M3395.4,1540.9c0.2-0.5,0.3-1.1,0.5-1.6c1.8-5.5,0.2-11.7-5.5-14.3c-5.1-2.2-12.2,0-14.3,5.5
			c-0.9,2.6-1.9,5.1-2.8,7.7c-0.3,0.5-0.6,1.1-0.8,1.7c-2.6,8.1-8,17.9-5.4,26.3c1.4-1.3,2.7-2.5,4.1-3.8
			C3378.9,1555.2,3387,1547.9,3395.4,1540.9z"/>
		<path class="st13" d="M3221.3,1928.2l19.7,18.8c15.5-12.3,31.6-23.7,48.4-34.2c25.3-15.8,51.9-28.8,79.5-39.7
			c14-3.3,27.9-7.6,41.2-10.8c22.7-5.5,45.4-10.7,68-16.6c40-10.5,79.7-24.5,110.6-52.9c7.6-6.9-2-19.9-9.6-12.9
			c-22.5,20.9-49.6,33.4-78.1,42.9c8-4.4,15.8-9.3,23.3-14.9c3.4-2.5,7.1-5.4,11-8.7c13.6-7.2,26.7-20.5,34.1-28.4
			c4.5-4.8,8.6-9.9,12.3-15.3c6.3-5.3,10.8-13.4,12.4-22c1.5-3.3,2.8-6.6,4.1-10c2.7-7.4,4.9-14.9,6.4-22.6c1.2-6.3,2-12.9,2-19.3
			c0-7.7-1.1-15.2-3.8-21.9c-3.3-8.1-8.9-15.1-17.9-20.1c-18.5-10.2-42-7.4-60.7,2.3c-3.4-15.3-10.8-29.2-25.3-36.8
			c-7.8-4.1-17.2-6-26.2-5.2c5.3-13.2,6.4-27.9,2.3-42.1c-1.8-6.3-4.8-12.8-8.7-18.6c-6.7-9.9-16.1-18-27.5-20.3
			c-3.4-2-7.9-2.6-11.5-0.5c-11,6.2-21.6,14.1-31.7,22.5c-8.4,7-16.5,14.3-24.3,21.5c-1.4,1.3-2.7,2.5-4.1,3.8
			c-15.1,14.2-29.2,29.4-40.6,46.8c-5.8,8.8-10.9,17.9-15.1,27.5c0.6-11.3,2.4-22.6,5.7-34c3.8-13.2,9.2-25.9,15.8-38
			c6.6-12,15.8-22.9,20.8-35.7c0.7-1.7-1-3.9-2.9-3c-20.9,10.2-33.8,36.1-42,56.8c-9.9,24.9-14.3,52-13.9,78.8
			c0.1,10.2,1.4,20.3,3.3,30.3c-0.8,15.2-0.1,30.5-0.1,45.6c0.3,46.9-9.1,91.8-31.9,133.2 M3275.3,1883.8
			c29.5-34.8,47.4-73.9,58.4-117.9c9.9-39.5,16.5-80,32.1-117.8c13.9-33.7,34-58.8,65-78c1.4-0.9,2.9,1,1.6,2.1
			c-30.7,24.7-49.6,66-61.3,102.8c-12.9,40.6-18.7,83.1-31.9,123.5 M3315,1881.3c42-48.4,77.2-104.3,122-150.2
			c2.3-2.4,7.1-0.1,5.3,3.3c-29.4,57.7-79.8,104.4-126.4,148C3315.4,1882.8,3314.5,1881.8,3315,1881.3z M3501.5,1703.2
			c-2.9-3.9-1.9-9.4,1.9-12.4c6.4-5,13.1-11.3,21.5-12.4c4.5-0.6,7.1,3.9,5.8,7.8c-2.7,7.9-10.6,13.4-16.7,18.8
			C3510.3,1708.2,3504.2,1706.8,3501.5,1703.2z M3516.7,1785.1c-10.5,7.6-21.5,14.2-33,20c-22.9,11.6-48.8,21.9-74.8,19.1
			c-2.4-0.3-2.3-3.4-0.5-4.3c22.4-11.4,47.1-17.5,69.5-29.4c12.5-6.6,24.4-14.4,35.6-23c7.9-6.1,14.2-13,24-15.4c4-1,6,3.7,5.1,6.8
			C3538.9,1770.4,3526.1,1778.3,3516.7,1785.1z M3481.4,1657.2c-2,5.2-8.7,6.8-13.2,4.1c-4.9-3-5.6-9.1-2.4-13.6
			c3.8-5.3,7.6-11.9,14.4-13.5c2-0.5,4.5,1.2,5.2,3.1C3487.7,1643.7,3483.7,1651.3,3481.4,1657.2z M3499,1635
			c-3-4.1-6.5-7.9-10.4-11.2C3492.9,1626.4,3496.8,1630.3,3499,1635z M3331.2,1683c-4.1,0.7-7.4-2.1-9.1-5.4c-1.4-2.6-1.1-6.6-1-9.5
			c0.1-2.8,0.7-5.5,2.6-7.7c1.6-1.9,5-3.2,7.3-1.8c3,1.8,4.6,4.1,5.9,7.3c1.2,3,2.4,6.6,1.8,9.8
			C3338.1,1679.5,3335,1682.3,3331.2,1683z"/>
		<path class="st12" d="M3339.2,1798.6c13.3-40.5,19-83,31.9-123.5c11.7-36.8,30.6-78.1,61.3-102.8c1.3-1.1-0.1-3-1.6-2.1
			c-31,19.2-51.1,44.2-65,78c-15.6,37.9-22.3,78.3-32.1,117.8c-11,44-28.9,83.1-58.4,117.9"/>
		<path class="st12" d="M3480.1,1634.2c-6.7,1.6-10.6,8.2-14.4,13.5c-3.2,4.5-2.5,10.6,2.4,13.6c4.5,2.7,11.1,1.1,13.2-4.1
			c2.3-5.9,6.3-13.5,4-19.9C3484.7,1635.4,3482.2,1633.7,3480.1,1634.2z"/>
		<path class="st12" d="M3524.8,1678.4c-8.3,1.1-15,7.4-21.5,12.4c-3.8,2.9-4.7,8.5-1.9,12.4c2.7,3.6,8.8,5,12.4,1.8
			c6.1-5.3,14.1-10.8,16.7-18.8C3531.9,1682.4,3529.4,1677.8,3524.8,1678.4z"/>
		<path class="st12" d="M3336.9,1665.8c-1.3-3.3-2.9-5.5-5.9-7.3c-2.4-1.4-5.7-0.1-7.3,1.8c-1.9,2.2-2.4,4.9-2.6,7.7
			c-0.1,2.9-0.4,6.9,1,9.5c1.8,3.3,5.1,6.1,9.1,5.4c3.8-0.6,6.9-3.4,7.6-7.3C3339.3,1672.5,3338.1,1668.8,3336.9,1665.8z"/>
		<path class="st12" d="M3437,1731c-44.8,45.9-80,101.8-122,150.2c-0.5,0.6,0.4,1.6,1,1c46.6-43.6,97-90.3,126.4-148
			C3444.1,1730.9,3439.4,1728.6,3437,1731z"/>
		<path class="st12" d="M3537.4,1752c-9.8,2.4-16.1,9.4-24,15.4c-11.2,8.6-23.1,16.3-35.6,23c-22.4,11.9-47,18-69.5,29.4
			c-1.8,0.9-1.9,4,0.5,4.3c26,2.8,51.9-7.5,74.8-19.1c11.5-5.8,22.6-12.4,33-20c9.4-6.8,22.2-14.7,25.8-26.2
			C3543.4,1755.8,3541.5,1751.1,3537.4,1752z"/>
	</g>
	<g>
		<path class="st8" d="M3259.1,1872.6c3.4,2.9,1.7,9.1-3.2,8.5c-16-1.8-27.4-12.8-41.1-1.7c-3.2,2.6-14.3,7.6-16.9,10.8
			c1.9,1.3,10.7,10.8,12.2,12.5c2.6,2.8,5,5.8,7.4,8.8c3.5,4.2,2.3,10.6-2.2,13.4c-5.1,3.2-10.2,0.8-13.1-3.8
			c-1.9-3-4.6-6.6-6.5-10.3c-0.9,1.4-6.6-6.3-8.3-5.8c-20.3,5.9-37.9,38.1-35.2,52.2l3.3,23.5c1.2-7,2.5,16.7,16.5,38.6
			c10.2,16,31.6,25.4,31.6,25.3c-5.3-19.5,11.9-18.3,12.2-17.3c39.5,3.7,45.4-29.3,49.8-31.9c49.3-29.1,33.4-61.9,33.9-66
			c3.4-24.5-9-28-20.5-37.8c-1-0.9-1.2-2.4-1.9-3.6c-2.9-4.8-6.9-8.9-11.6-12"/>
		<path class="st7" d="M3259,1872.6c-18.4-15.5-52.9-3.5-68.3,9.3c-9.7,8.1-22.4,13.5-36.4,42c-6.5,13.3-5.3,35.4-4.5,40.1
			c5.1,29.5,41.1,54.2,41.2,54.2c-11.6-16.3-30.9-38.1-31.2-53.9c-0.3-19.4,2.5-20.5,3.3-19.5c2.8,3.5,15.2,11.5,19.3,13.3
			c10.7,4.6,16.2-6.6,1.2-15.6c-12.3-7.3-10.3-14.3-12.4-15.7c5.6-16.3,15.3-18.8,16.3-20.2c1.9,3.7,13.1,11.7,15,14.7
			c2.9,4.6,8,7,13.1,3.8c4.5-2.9,5.7-9.2,2.2-13.4c-2.4-3-4.8-6-7.4-8.8c-1.6-1.7-6-6.9-7.9-8.2c2.6-3.2,7.1-7,10.8-9
			c20.5-10.9,26.8-6.3,42.8-4.5C3260.8,1881.7,3262.5,1875.5,3259,1872.6"/>
		<path class="st7" d="M3274,1959.5c-3.6-1.3-7.4-1.9-11.1-3.1c-5.1-1.7-10.7,5.4-6.1,9.4c3.2,2.8,5.9,6,9.2,8.7
			c3.2,2.6,6.6,5.1,10,7.5c2.2,1.6,4.7,1.9,7.2,1.5c3.2-0.6,6.1-2.7,7.5-5.7c2.8-5.8-0.3-11.6-5.9-14c-0.1,0-0.2-0.1-0.3-0.1
			C3281,1962.2,3277.5,1960.7,3274,1959.5z"/>
	</g>
</g>
<g>
	<path class="st3" d="M782.4,482.8c-18.5-28.7-48.5-48.1-81.4-56.5c-16.7-4.2-33.7-4.7-50.9-3.9c-14.4,0.6-30.5,2.2-43.5-4.4
		c-2.8-1.4-5.3-3.4-7.5-5.7c0.4,0.3-1.3-1.5-1.6-2.1c-1-1.3-1.8-2.6-2.7-4.1c-0.1-0.1-0.2-0.4-0.3-0.4c-0.3-0.6-0.5-1.1-0.7-1.7
		c-0.6-1.4-1.2-2.7-1.8-4.1c-1.1-3.1-2.1-6.1-2.8-9.1c0-0.1-0.2-0.7-0.3-1c-0.1-0.5-0.3-1.1-0.3-1.6c-0.2-1.4-0.6-2.7-0.9-4.1
		c-0.6-3-1.2-6.1-1.7-9.3c-0.7-3.4-1.3-6.8-2.2-10.1c0.7-2.2,0.1-4.7-1.1-6.8c-0.4-0.9-1-1.6-1.5-2.4c-1.6-5.4-4-10.7-7.4-15.3
		c-1.6-2.2-3.4-4-5.4-5.7c-13.7-21.5-29.1-41.9-49.2-57.8c-26-20.5-60.8-32-93.6-23.7c-16.5,4.2-29.6,14.3-42.9,24.4
		c-6.1,4.6-12.3,9.4-19.4,12.7c-7.4,3.6-15.2,5.7-23.3,6.9c-16.6,2.6-33.5,2.3-50.2,3.9c-15.4,1.6-30.4,5.6-44,13.1
		c-12.4,6.8-23.8,17.6-28.6,31.3c-5,14.3-3.2,28.9,2.3,42.6c5.1,12.9,12.8,24.7,17.8,37.7c2.4,6.2,3.9,11.4,4.2,18
		c0.3,7.5-2.3,14.8-5.7,21.4c-8.2,15.2-22.4,26-34.9,37.4c-12.8,11.6-24.2,24.1-31.6,39.8c-13.8,28.9-14.5,63-4.9,93.1
		C185,699.8,253,737,317.5,740c37.2,1.6,74.3-5.6,109.2-18.6c15.2-5.7,31.4-13.5,48-13c6.7,0.1,13,2.3,17.9,6.8
		c4.6,4.1,7.6,10.2,10.3,16c6.5,14.2,12.8,28.2,25.8,37.9c12.6,9.2,27.9,14.1,43.5,14.7c34.9,1.4,65.6-18.1,91.1-40
		c14.8-12.7,28.7-26.5,42.7-40.2c13.1-12.8,26.3-25.5,39-38.8c23.9-25,45.9-53.5,54.5-87.7C807.3,545,800.2,510.5,782.4,482.8z
		 M762.9,582.1c-0.4,4.5-1.8,9-3.7,13.1c-3.6,8.4-9.9,16.2-17.6,21.3c-9,5.8-18.5-7.4-9.7-13.5c5.4-3.9,9.9-8.3,13-14.4
		c1.6-3,2.6-6.2,3.6-9.5c0.9-3.2,2.4-6.5,2.9-9.8c0.7-4.6,8-5.6,9.3-0.9C762.1,573,763.3,577,762.9,582.1z M637.4,626.7
		c-15.7,12.2-34.8,17.9-53.8,17c-21.1,4.8-43.3,2.3-62.1-10.3c-14.5-9.7-24.8-25.1-31.5-40.8c-2.4-5.6-4.3-11.5-5.9-17.4
		c-11.9,7.2-25.1,12.2-38.9,14.9c-26.9,5.2-55-0.1-78.2-14.8c-22.9-14.4-40.8-36.8-49.7-62.4c-16.9-48.6,2.3-106.5,44.2-136
		c4.4-4.8,9.1-9.4,14.2-13.2c3-3.9,6.3-7.4,10.3-10.6c17-13.8,39.3-20.6,61-19.8c22.4,0.7,43.6,10,60.2,24.9
		c16.9,15.3,28.7,35.7,33.8,57.9c5.8,25.3,2.5,52.3-7.2,76.1c-1.7,4.2-3.6,8.3-5.7,12.2c11.5-11.6,26.2-19.9,42.5-22.9
		c0-3.1,1.8-6.2,5.9-6.7c41.3-4.4,81.2,22.1,91.9,62.5C677.2,571.1,664.9,605.4,637.4,626.7z M236.9,671
		c-18.6-12.2-33.3-30.5-41.9-51c-4.2-10.1-7-21.1-7.8-32.2c-0.6-10.8-0.2-29.3,11.8-34c2.7-1,6.6,0.9,6.6,4.1
		c0,6.8-3.2,13.4-3.4,20.3c-0.2,6.4,0.9,13.1,2.3,19.2c2.8,11.4,8,22.3,14.7,31.9c7,9.9,15.6,18.4,25.7,25.3c4.8,3.2,10,6,15.3,8.3
		c5.9,2.5,14.2,3.5,18,8.8c3.3,4.5,0.9,10.3-3.7,12.4c-6.3,2.9-14.9-1.6-20.9-4C247.6,677.6,242.1,674.4,236.9,671z M303.9,683.2
		c-0.1,0-0.1,0.1-0.3,0.1c0.3-0.1,0.6-0.3,1.1-0.5c0.3-0.1,0.7-0.2,1-0.3c2.8-1,6-1,8.9-0.7c4.5,0.4,7,5.1,6.6,9.2
		c-0.5,4.2-5.1,7.3-9.2,6.6c-1.8-0.3-3.6-1-5.4-1.7c-0.8-0.2-1.4-0.7-2.1-1.1c0,0-0.2-0.2-0.8-0.4c0.2,0.2,0.5,0.2,0.8,0.4
		c0,0-0.5-0.3-1.5-1c-0.2-0.3-0.5-0.5-0.7-0.6c-3.5-2.9-2.3-8,1.4-9.9C303.1,683.6,303.2,683.5,303.9,683.2z M238,339.1
		c4-1.3,7.1,1.8,7.1,5.8c-0.1,2.3-0.6,4.9-0.5,6.8c0.1,2.6,0.8,3.4,2.2,5.5c4.8,7.1-4.4,15.9-11.1,10.2
		C227.7,360.6,226.2,342.9,238,339.1z"/>
	<path class="st3" d="M432.8,567.6c0.9,0,1.9,0,2.7-0.1C434.6,567.5,433.7,567.6,432.8,567.6z"/>
	<path class="st3" d="M509,587.5c0.2,0.4,0.4,0.9,0.6,1.4c-0.5-1.5-1.1-3.1-1.5-4.6c-0.4-0.3-0.6-0.7-0.9-1
		C507.7,584.7,508.4,586.1,509,587.5z"/>
	<path class="st1" d="M509.7,588.9c-0.2-0.4-0.4-0.9-0.6-1.4c-0.6-1.4-1.3-2.8-1.8-4.3c0.4,0.3,0.6,0.7,0.9,1
		c-4.1-14-4.7-28.9-0.8-43.5c1-4.2,2.4-8.1,4.2-11.9c-19.3,22.4-45.9,37.7-76,38.8c-0.9,0-1.9,0-2.7,0.1c-2.7,0.1-5.5-0.1-8.3-0.3
		c-23.2-1.9-45.9-12.1-62.5-28.4c-16.8-16.4-27.4-38.1-31.4-61.1c-4-23.2-0.4-47.3,9.6-68.8c5.3-11.4,12.6-22.6,21.4-32.4
		c-41.9,29.4-61.2,87.4-44.2,136c8.9,25.6,26.8,48,49.7,62.4c23.2,14.6,51.3,20,78.2,14.8c13.8-2.7,26.9-7.7,38.9-14.9
		c1.6,5.9,3.4,11.8,5.9,17.4c6.7,15.9,17,31.1,31.5,40.8c18.8,12.6,41.1,15.1,62.1,10.3c-13.8-0.7-27.4-4.6-39.7-12.2
		C527.8,621.5,515.9,606.2,509.7,588.9z"/>
	<path class="st1" d="M274.4,684.2c4.7-2.1,7.1-7.9,3.7-12.4c-3.9-5.3-12.1-6.2-18-8.8c-5.3-2.4-10.5-5.1-15.3-8.3
		c-10-6.8-18.7-15.3-25.7-25.3c-6.8-9.6-11.9-20.5-14.7-31.9c-1.6-6.2-2.5-12.9-2.3-19.2c0.1-6.9,3.4-13.5,3.4-20.3
		c0-3.2-3.8-5.1-6.6-4.1c-12,4.8-12.6,23.3-11.8,34c0.7,10.9,3.5,22,7.8,32.2c8.6,20.5,23.3,38.8,41.9,51c5.3,3.6,10.9,6.6,16.7,9.2
		C259.5,682.6,268.2,687.1,274.4,684.2z"/>
	<path class="st1" d="M304.4,694.7c-0.2-0.2-0.5-0.2-0.8-0.4C304.2,694.6,304.3,694.7,304.4,694.7z"/>
	<path class="st1" d="M302.2,693.2c0.2,0.2,0.5,0.5,0.7,0.6c1,0.6,1.5,1,1.5,1c0.8,0.4,1.4,0.8,2.1,1.1c1.8,0.6,3.6,1.4,5.4,1.7
		c4.1,0.7,8.7-2.3,9.2-6.6c0.5-4.1-2.1-8.8-6.6-9.2c-2.9-0.3-6.1-0.3-8.9,0.7c-0.3,0.1-0.7,0.2-1,0.3c-0.6,0.3-0.9,0.4-1.1,0.5
		C299.9,685.1,298.7,690.2,302.2,693.2z"/>
	<path class="st1" d="M303.6,683.3c0.1,0,0.1-0.1,0.3-0.1C303.2,683.5,303.1,683.6,303.6,683.3z"/>
	<path class="st1" d="M235.6,367.3c6.7,5.7,15.9-3.2,11.1-10.2c-1.5-2.2-2.2-2.9-2.2-5.5c0-1.9,0.4-4.5,0.5-6.8c0.2-4-2.9-7-7.1-5.8
		C226.2,342.9,227.7,360.6,235.6,367.3z"/>
	<path class="st1" d="M751.4,569.1c-0.5,3.3-2,6.6-2.9,9.8c-1,3.2-2.1,6.4-3.6,9.5c-3.1,6.1-7.5,10.5-13,14.4
		c-8.8,6.3,0.7,19.5,9.7,13.5c7.8-5,13.9-13,17.6-21.3c1.8-4.1,3.3-8.6,3.7-13.1c0.4-5-0.8-9-2.1-13.9
		C759.4,563.5,752.1,564.6,751.4,569.1z"/>
	<path class="st24" d="M668.2,537.4c-10.7-40.4-50.6-66.8-91.9-62.5c-3.9,0.5-5.9,3.5-5.9,6.7c-16.2,2.9-31,11.2-42.5,22.9
		c2.1-4,4-8.1,5.7-12.2c9.7-23.9,13-50.9,7.2-76.1c-5-22.2-16.8-42.6-33.8-57.9c-16.6-15-37.8-24.2-60.2-24.9
		c-21.7-0.6-44.1,6-61,19.8c-3.8,3.2-7.3,6.6-10.3,10.6c-5.1,3.9-9.8,8.4-14.2,13.2c-8.7,9.7-16.1,21-21.4,32.4
		c-10,21.3-13.6,45.5-9.6,68.8c4,23,14.6,44.6,31.4,61.1c16.6,16.2,39.3,26.5,62.5,28.4c2.8,0.2,5.6,0.2,8.3,0.3
		c0.9,0,1.9,0,2.7-0.1c30.1-1.1,56.7-16.4,76-38.8c-1.6,3.8-3,7.8-4.2,11.9c-3.8,14.7-3.3,29.7,0.8,43.5c0.5,1.5,1,3.1,1.5,4.6
		c6.3,17.3,18.1,32.6,34.2,42.7c12.2,7.6,25.9,11.7,39.7,12.2c19,0.9,38.1-4.9,53.8-17C664.9,605.4,677.2,571.1,668.2,537.4z
		 M628.2,524.4c5.4,6.8-5.2,14-10.8,7.7c-8.7-10-20.2-16.8-33.6-17.8c-6.6-0.5-13.4,0.6-19.7,2.9c-5.2,1.9-11.4,7-16.9,6.2
		c-1.7-0.2-2.6-1.9-2.4-3.4c0.7-7.3,11.5-11.8,17.4-13.9c7.5-2.7,15.6-3.9,23.7-3.5C602,503.3,618.2,511.4,628.2,524.4z
		 M638.2,547.4c7.4,1,5.5,12.4-1.9,11.4C628.9,557.8,630.8,546.4,638.2,547.4z M499,438.7c-7.8-1-5.7-13,2.1-11.9
		C508.7,427.8,506.8,439.7,499,438.7z M483.3,408c-10.9-29.3-47.9-29.1-72.3-18.4c-11.7,5.2-22.1,13.3-30.3,23.1
		c-4,4.7-7.4,10-10.2,15.5c-1.5,2.9-3.1,5.9-4.6,8.8c-1,1.9-2.8,4.4-5.4,3.8c-10-2.2,7-28.2,9.9-32c14-19,35.2-32.7,58.3-37.2
		c25.6-5.1,58.9,3.9,67.4,31.6C498.4,411.5,486.4,416.3,483.3,408z"/>
	<path class="st3" d="M428.5,371.6c-23.1,4.7-44.3,18.2-58.3,37.2c-2.8,3.8-19.9,29.8-9.9,32c2.5,0.6,4.4-1.9,5.4-3.8
		c1.5-2.9,3.1-5.9,4.6-8.8c2.9-5.5,6.3-10.8,10.2-15.5c8.2-9.7,18.6-17.9,30.3-23.1c24.4-10.7,61.5-10.9,72.3,18.4
		c3.1,8.2,15.1,3.5,12.6-4.8C487.4,375.5,454.1,366.5,428.5,371.6z"/>
	<path class="st3" d="M501.1,426.8c-7.8-1-9.7,10.9-2.1,11.9C506.8,439.7,508.7,427.8,501.1,426.8z"/>
	<path class="st3" d="M562,506c-5.9,2.1-16.7,6.6-17.4,13.9c-0.2,1.6,0.7,3.2,2.4,3.4c5.7,0.8,11.9-4.4,16.9-6.2
		c6.3-2.3,13.1-3.4,19.7-2.9c13.4,1,25,7.8,33.6,17.8c5.4,6.2,16-0.8,10.8-7.7c-10-12.9-26.2-21.1-42.5-21.9
		C577.7,502.1,569.7,503.3,562,506z"/>
	<path class="st3" d="M636.4,558.8c7.4,1,9.4-10.4,1.9-11.4C630.8,546.4,628.9,557.8,636.4,558.8z"/>
</g>
<g>
	<path class="st3" d="M6234.8,1661.9c-18.4-28.7-48.5-48.1-81.4-56.5c-16.7-4.2-33.7-4.7-50.9-3.9c-14.4,0.6-30.5,2.2-43.5-4.4
		c-2.8-1.4-5.3-3.4-7.5-5.7c0.4,0.3-1.3-1.5-1.6-2.1c-1-1.3-1.8-2.6-2.7-4.1c-0.1-0.1-0.2-0.4-0.3-0.4c-0.3-0.6-0.5-1.1-0.7-1.7
		c-0.6-1.4-1.2-2.7-1.8-4.1c-1.1-3.1-2.1-6.1-2.8-9.1c0-0.1-0.2-0.7-0.3-1c-0.1-0.5-0.3-1.1-0.3-1.6c-0.2-1.4-0.6-2.7-0.9-4.1
		c-0.6-3-1.2-6.1-1.7-9.3c-0.7-3.4-1.3-6.8-2.2-10.1c0.7-2.2,0.1-4.7-1.1-6.8c-0.4-0.9-1-1.6-1.5-2.4c-1.6-5.4-4-10.7-7.4-15.3
		c-1.6-2.2-3.4-4-5.4-5.7c-13.7-21.5-29.1-41.9-49.2-57.8c-26-20.5-60.8-32-93.6-23.7c-16.5,4.2-29.6,14.3-42.9,24.4
		c-6.1,4.6-12.3,9.4-19.4,12.7c-7.4,3.6-15.2,5.7-23.3,6.9c-16.6,2.6-33.5,2.3-50.2,3.9c-15.4,1.6-30.4,5.6-44,13.1
		c-12.4,6.8-23.8,17.5-28.6,31.3c-5,14.3-3.2,28.9,2.3,42.6c5.1,12.9,12.8,24.7,17.8,37.7c2.4,6.2,3.9,11.4,4.2,18
		c0.3,7.5-2.3,14.8-5.7,21.4c-8.2,15.2-22.4,26-34.9,37.4c-12.8,11.6-24.2,24.1-31.6,39.8c-13.8,28.9-14.5,63-4.9,93.1
		c20.6,64.5,88.6,101.7,153.1,104.7c37.2,1.6,74.3-5.6,109.2-18.6c15.2-5.7,31.4-13.5,48-13c6.7,0.1,13,2.3,17.9,6.8
		c4.6,4.1,7.6,10.2,10.3,16c6.5,14.2,12.8,28.2,25.8,37.9c12.6,9.2,27.9,14.1,43.5,14.7c34.9,1.4,65.6-18.1,91.1-40
		c14.8-12.7,28.7-26.5,42.7-40.2c13.1-12.8,26.3-25.5,39-38.8c23.9-25,45.9-53.5,54.5-87.7
		C6259.7,1724.1,6252.6,1689.6,6234.8,1661.9z M6215.3,1761.2c-0.4,4.5-1.8,9-3.7,13.1c-3.6,8.4-9.9,16.2-17.6,21.3
		c-9,5.8-18.5-7.4-9.7-13.5c5.4-3.9,9.9-8.3,13-14.4c1.6-3,2.6-6.2,3.6-9.5c0.9-3.2,2.4-6.5,2.9-9.8c0.7-4.6,8-5.6,9.3-0.9
		C6214.5,1752.1,6215.7,1756.1,6215.3,1761.2z M6089.8,1805.8c-15.7,12.2-34.8,17.9-53.8,17c-21.1,4.8-43.3,2.3-62.1-10.3
		c-14.5-9.7-24.8-25.1-31.5-40.8c-2.4-5.6-4.3-11.5-5.9-17.4c-11.9,7.2-25.1,12.2-38.9,14.9c-26.9,5.2-55-0.1-78.2-14.8
		c-22.9-14.4-40.8-36.8-49.7-62.4c-16.9-48.6,2.3-106.5,44.2-136c4.4-4.8,9.1-9.4,14.2-13.2c3-3.9,6.3-7.4,10.3-10.6
		c17-13.8,39.3-20.6,61-19.8c22.4,0.7,43.6,10,60.2,24.9c16.9,15.3,28.7,35.7,33.8,57.9c5.8,25.3,2.5,52.3-7.2,76.1
		c-1.7,4.2-3.6,8.3-5.7,12.2c11.5-11.6,26.2-19.9,42.5-22.9c0-3.1,1.8-6.2,5.9-6.7c41.3-4.4,81.2,22.1,91.9,62.5
		C6129.6,1750.2,6117.3,1784.5,6089.8,1805.8z M5689.3,1850.1c-18.6-12.2-33.3-30.5-41.9-51c-4.2-10.1-7-21.1-7.8-32.2
		c-0.6-10.8-0.2-29.3,11.8-34c2.7-1,6.6,0.9,6.6,4.1c0,6.8-3.2,13.4-3.4,20.3c-0.2,6.4,0.9,13.1,2.3,19.2c2.8,11.4,8,22.3,14.7,31.9
		c7,9.9,15.6,18.4,25.7,25.3c4.8,3.2,10,6,15.3,8.3c5.9,2.5,14.2,3.5,18,8.8c3.3,4.5,0.9,10.3-3.7,12.4c-6.3,2.9-14.9-1.6-20.9-4
		C5700,1856.7,5694.5,1853.5,5689.3,1850.1z M5756.3,1862.3c-0.1,0-0.1,0.1-0.3,0.1c0.3-0.1,0.6-0.3,1.1-0.5c0.3-0.1,0.7-0.2,1-0.3
		c2.8-1,6-1,8.9-0.7c4.5,0.4,7,5.1,6.6,9.2c-0.5,4.2-5.1,7.3-9.2,6.6c-1.8-0.3-3.6-1-5.4-1.7c-0.8-0.2-1.4-0.7-2.1-1.1
		c0,0-0.2-0.2-0.8-0.4c0.2,0.2,0.5,0.2,0.8,0.4c0,0-0.5-0.3-1.5-1c-0.2-0.3-0.5-0.5-0.7-0.6c-3.5-2.9-2.3-8,1.4-9.9
		C5755.5,1862.7,5755.6,1862.6,5756.3,1862.3z M5690.4,1518.2c4-1.3,7.1,1.8,7.1,5.8c-0.1,2.3-0.6,4.9-0.5,6.8
		c0.1,2.6,0.8,3.4,2.2,5.5c4.8,7.1-4.4,15.9-11.1,10.2C5680.1,1539.7,5678.6,1522,5690.4,1518.2z"/>
	<path class="st3" d="M5885.2,1746.7c0.9,0,1.9,0,2.7-0.1C5887,1746.6,5886.1,1746.7,5885.2,1746.7z"/>
	<path class="st3" d="M5961.4,1766.6c0.2,0.4,0.4,0.9,0.6,1.4c-0.5-1.5-1.1-3.1-1.5-4.6c-0.4-0.3-0.6-0.7-0.9-1
		C5960.1,1763.8,5960.8,1765.2,5961.4,1766.6z"/>
	<path class="st1" d="M5962.1,1768c-0.2-0.4-0.4-0.9-0.6-1.4c-0.6-1.4-1.3-2.8-1.8-4.3c0.4,0.3,0.6,0.7,0.9,1
		c-4.1-14-4.7-28.9-0.8-43.5c1-4.2,2.4-8.1,4.2-11.9c-19.3,22.3-45.9,37.7-76,38.8c-0.9,0-1.9,0-2.7,0.1c-2.7,0.1-5.5-0.1-8.3-0.3
		c-23.2-1.9-45.9-12.1-62.5-28.4c-16.8-16.4-27.4-38.1-31.4-61.1c-4-23.2-0.4-47.3,9.6-68.8c5.3-11.4,12.6-22.6,21.4-32.4
		c-41.9,29.4-61.2,87.4-44.2,136c8.9,25.6,26.8,48,49.7,62.4c23.2,14.6,51.3,20,78.2,14.8c13.8-2.7,26.9-7.7,38.9-14.9
		c1.6,5.9,3.4,11.8,5.9,17.4c6.7,15.9,17,31.1,31.5,40.8c18.8,12.6,41.1,15.1,62.1,10.3c-13.8-0.7-27.4-4.6-39.7-12.2
		C5980.2,1800.6,5968.3,1785.3,5962.1,1768z"/>
	<path class="st1" d="M5726.8,1863.3c4.7-2.1,7.1-7.9,3.7-12.4c-3.9-5.3-12.1-6.2-18-8.8c-5.3-2.4-10.5-5.1-15.3-8.3
		c-10-6.8-18.7-15.3-25.7-25.3c-6.8-9.6-11.9-20.5-14.7-31.9c-1.6-6.2-2.5-12.9-2.3-19.2c0.1-6.9,3.4-13.5,3.4-20.3
		c0-3.2-3.8-5.1-6.6-4.1c-12,4.8-12.6,23.3-11.8,34c0.7,10.9,3.5,22,7.8,32.2c8.6,20.5,23.3,38.8,41.9,51c5.3,3.6,10.9,6.6,16.7,9.2
		C5711.9,1861.7,5720.6,1866.2,5726.8,1863.3z"/>
	<path class="st1" d="M5756.8,1873.8c-0.2-0.2-0.5-0.2-0.8-0.4C5756.6,1873.7,5756.7,1873.8,5756.8,1873.8z"/>
	<path class="st1" d="M5754.6,1872.3c0.2,0.2,0.5,0.5,0.7,0.6c1,0.6,1.5,1,1.5,1c0.8,0.4,1.4,0.8,2.1,1.1c1.8,0.6,3.6,1.4,5.4,1.7
		c4.1,0.7,8.7-2.3,9.2-6.6c0.5-4.1-2.1-8.8-6.6-9.2c-2.9-0.3-6.1-0.3-8.9,0.7c-0.3,0.1-0.7,0.2-1,0.3c-0.6,0.3-0.9,0.4-1.1,0.5
		C5752.3,1864.2,5751.1,1869.3,5754.6,1872.3z"/>
	<path class="st1" d="M5756,1862.4c0.1,0,0.1-0.1,0.3-0.1C5755.6,1862.6,5755.5,1862.7,5756,1862.4z"/>
	<path class="st1" d="M5688,1546.4c6.7,5.7,15.9-3.2,11.1-10.2c-1.5-2.2-2.2-2.9-2.2-5.5c0-1.9,0.4-4.5,0.5-6.8c0.2-4-2.9-7-7.1-5.8
		C5678.6,1522,5680.1,1539.7,5688,1546.4z"/>
	<path class="st1" d="M6203.8,1748.2c-0.5,3.3-2,6.6-2.9,9.8c-1,3.2-2.1,6.4-3.6,9.5c-3.1,6.1-7.5,10.5-13,14.4
		c-8.8,6.3,0.7,19.5,9.7,13.5c7.8-5,13.9-13,17.6-21.3c1.8-4.1,3.3-8.6,3.7-13.1c0.4-5-0.8-9-2.1-13.9
		C6211.8,1742.6,6204.5,1743.7,6203.8,1748.2z"/>
	<path class="st24" d="M6120.6,1716.5c-10.7-40.4-50.6-66.8-91.9-62.5c-3.9,0.5-5.9,3.5-5.9,6.7c-16.2,2.9-31,11.2-42.5,22.9
		c2.1-4,4-8.1,5.7-12.2c9.7-23.9,13-50.9,7.2-76.1c-5-22.2-16.8-42.6-33.8-57.9c-16.6-15-37.8-24.2-60.2-24.9
		c-21.7-0.6-44.1,6-61,19.8c-3.8,3.2-7.3,6.6-10.3,10.6c-5.1,3.9-9.8,8.4-14.2,13.2c-8.7,9.7-16.1,21-21.4,32.4
		c-10,21.3-13.6,45.5-9.6,68.8c4,23,14.6,44.6,31.4,61.1c16.6,16.2,39.3,26.5,62.5,28.4c2.8,0.2,5.6,0.2,8.3,0.3
		c0.9,0,1.9,0,2.7-0.1c30.1-1.1,56.7-16.4,76-38.8c-1.6,3.8-3,7.8-4.2,11.9c-3.8,14.7-3.3,29.7,0.8,43.5c0.5,1.5,1,3.1,1.5,4.6
		c6.3,17.3,18.1,32.6,34.2,42.7c12.2,7.6,25.9,11.7,39.7,12.2c19,0.9,38.1-4.9,53.8-17C6117.3,1784.5,6129.6,1750.2,6120.6,1716.5z
		 M6080.6,1703.5c5.4,6.8-5.2,14-10.8,7.7c-8.7-10-20.2-16.8-33.6-17.8c-6.6-0.5-13.4,0.6-19.7,2.9c-5.2,1.9-11.4,7-16.9,6.2
		c-1.7-0.2-2.6-1.9-2.4-3.4c0.7-7.3,11.5-11.8,17.4-13.9c7.5-2.7,15.6-3.9,23.7-3.5C6054.4,1682.4,6070.6,1690.5,6080.6,1703.5z
		 M6090.6,1726.5c7.4,1,5.5,12.4-1.9,11.4C6081.3,1736.9,6083.2,1725.5,6090.6,1726.5z M5951.4,1617.8c-7.8-1-5.7-13,2.1-11.9
		C5961.1,1606.9,5959.2,1618.8,5951.4,1617.8z M5935.7,1587.1c-10.9-29.3-47.9-29.1-72.3-18.4c-11.7,5.2-22.1,13.3-30.3,23.1
		c-4,4.7-7.4,10-10.2,15.5c-1.5,2.9-3.1,5.9-4.6,8.8c-1,1.9-2.8,4.4-5.4,3.8c-10-2.2,7-28.2,9.9-32c14-19,35.2-32.7,58.3-37.2
		c25.6-5.1,58.9,3.9,67.4,31.6C5950.8,1590.6,5938.8,1595.4,5935.7,1587.1z"/>
	<path class="st3" d="M5880.9,1550.7c-23.1,4.7-44.3,18.2-58.3,37.2c-2.8,3.8-19.9,29.8-9.9,32c2.5,0.6,4.4-1.9,5.4-3.8
		c1.5-2.9,3.1-5.9,4.6-8.8c2.9-5.5,6.3-10.8,10.2-15.5c8.2-9.7,18.6-17.9,30.3-23.1c24.4-10.7,61.5-10.9,72.3,18.4
		c3.1,8.2,15.1,3.5,12.6-4.8C5939.8,1554.6,5906.5,1545.6,5880.9,1550.7z"/>
	<path class="st3" d="M5953.5,1605.9c-7.8-1-9.7,10.9-2.1,11.9C5959.2,1618.8,5961.1,1606.9,5953.5,1605.9z"/>
	<path class="st3" d="M6014.4,1685.1c-5.9,2.1-16.7,6.6-17.4,13.9c-0.2,1.6,0.7,3.2,2.4,3.4c5.7,0.8,11.9-4.4,16.9-6.2
		c6.3-2.3,13.1-3.4,19.7-2.9c13.4,1,25,7.8,33.6,17.8c5.4,6.2,16-0.8,10.8-7.7c-10-12.9-26.2-21.1-42.5-21.9
		C6030.1,1681.2,6022.1,1682.4,6014.4,1685.1z"/>
	<path class="st3" d="M6088.8,1737.9c7.4,1,9.4-10.4,1.9-11.4C6083.2,1725.5,6081.3,1736.9,6088.8,1737.9z"/>
</g>
<g>
	<path class="st12" d="M3713.8,235c8.9-17.9,31.5-28.3,48.9-36.3c20.5-9.5,42.3-16.5,64.3-21.5c45.2-10.3,92-11.8,138.2-13.6
		c21.7-0.9,43.4-1.7,65.1-3.6c5.4-2.7,10.8-5.5,16.2-8.2c-28.6-2.1-56.4-6.3-81.5-10.9c-13-2.4-26-4.9-39.1-7.5
		c-27.3,0.9-54.3,4.6-79.2,10.6c-71,17-135.1,55.9-181.9,111.1c-11.9,12.7-20.2,26.4-31.8,40.6c-3.1,3.8,3.1,8.2,6.5,5.3
		c15-13.1,34.7-23.1,50.9-35.2c9.9-7.4,19.9-14.5,30.2-21.2c0,0,0,0-0.1,0C3715.1,245.7,3711.5,239.8,3713.8,235z"/>
	<path class="st12" d="M3713.8,372.9c25.5-38.3,69.9-64.2,107.3-89.9c40.6-28,82.6-53.9,125.5-78.3c7.9-4.5,16-8.9,24-13.3
		c-16.7,0.4-33.5,0.7-50.2,1.3c-33.9,14.7-66.6,32.3-97.4,52.6c-36.9,24.3-71.5,51.9-102.6,83.2c-29.6,29.9-59.4,63.7-77.3,102.2
		c-0.2,0.3-0.4,0.5-0.6,0.8c-1.1,1.4-1.5,2.8-1.5,4.2c-0.9,3.4,1.7,6.2,4.9,6.9c2.8,1.4,6.4,1.4,9-1.1
		c22.2-20.8,44.2-41.5,66.8-61.7c-0.7,0.3-1.5,0.6-2.2,0.9C3715.1,382.4,3711.5,376.4,3713.8,372.9z"/>
	<path class="st12" d="M3647.3,128.1c56.3-41.2,130.7-41.9,200.8-33.4c3.7-0.6,7.4-1.2,11.1-1.8c-0.7,0.9-1.1,1.9-1.5,3
		c22.6,3,44.7,6.9,65.4,10.6c53.9,9.5,109.7,20.8,164.7,15.9c10.9-1,21.5-2.6,31.7-4.7c9.8-4.4,19.7-8.6,29.7-12.6
		c2.3-0.9,4.7-1.9,7.1-2.9c1.8-2,4-3.9,6.3-5.5c-25.5-7.3-50.8-15.7-75.8-22.5c-27.4-7.5-54.7-14.9-82.3-21.7
		c-37.1-0.1-74.2,2-111.1,6c-53.3,5.8-106.4,15.8-157.9,30.9c-24.7,7.2-49.2,15.3-73.1,24.8c-19.7,7.8-52,16-61.3,37
		c-0.9,2-0.4,4.3,2,5.1c19.8,6.4,43.7-7.9,62.2-14.3c24.2-8.4,48.6-16.3,73.4-23.2c5.1-1.4,10.3-2.8,15.5-4.1
		c-34.6,2.7-68,10.6-101.8,22.6C3647.3,139,3643.1,131.2,3647.3,128.1z M3999.5,92.1c0.7,0,1.4-0.1,2.1-0.1
		c-9.1,0.7-18.2,1.6-27.2,2.6c-0.9-0.1-1.9-0.2-2.8-0.2C3981,93.5,3990.3,92.7,3999.5,92.1z"/>
	<path class="st12" d="M4017.5,198.6c-18.4,18.4-36.5,37.2-54.2,56.2c-29.4,31.4-57.9,63.7-85.4,96.8
		c-23.5,28.3-59.7,62.2-68.2,98.8c-0.9,4,3.1,7.7,6.9,5.6c18.1-9.5,30.6-26.9,43.7-42.3c13-15.3,26-30.5,39.2-45.5
		c27.3-31.2,55.4-61.8,84.3-91.7c28.9-29.8,58.6-58.9,89.1-87.1c2.1-2,4.3-4,6.5-5.9c-14,2.2-28.1,3.8-42.2,5
		C4030.6,191.8,4024.1,195.2,4017.5,198.6z"/>
	<path class="st12" d="M4092.7,234.9c-0.3-5.4-2.7-10-7.8-12.3c-4.3-1.9-11-1.6-14.3,2.3c-2.4,3-4.3,5.7-5.2,9.5
		c-0.6,2.3-1.1,4.6-1.6,6.9c-1.1,5.2-2.3,11.1-0.7,16.4c2.4,7.6,10.1,9.5,16.3,4.9c4-2.9,6.5-8.1,8.4-12.5
		C4089.8,245.4,4092.9,240.3,4092.7,234.9z"/>
	<path class="st12" d="M4067.4,4.2c0.9,0.6,1.7,1.1,2.7,1.5c3.9,3.4,8.4,7.4,13.4,7.6c3.5,0.9,7.3,0.5,9-3.3c0.9-2.2,0.9-4,0.4-5.9
		c0-4.9-3.6-9.5-6.7-13.5c-0.4-0.9-0.8-1.9-1.3-2.8c-4.1-6.9-13.4-9-19.5-3.3C4059.3-9.7,4060.8-0.3,4067.4,4.2z"/>
	<path class="st13" d="M3692.1,48.5c20.7-7.7,44.3-9.1,65.9-12.9c21.6-3.8,43.1-6.4,65-7c44.8-1.2,89.7,4.4,133.6,13.2
		c16,3.2,32,6.9,47.9,10.7c27.5,6.7,54.9,14.2,82.3,21.7c25,6.8,50.3,15.2,75.8,22.5c7.3-5.2,16.6-8.8,25.3-11.9
		c0.6-2.1,1.9-4.2,4.2-6c0.8-0.6,1.6-1.2,2.5-1.9c-31.5-0.4-60-10.7-89.5-22c-3.9-1.5-4.3-5.5-2.5-8c-6.5-1.6-12.9-3.2-19.3-4.9
		c-47.6-12.7-95.3-25.1-144.1-32.9c-44.1-7.1-88.8-9.9-133.4-5.7c-20.2,1.9-40.7,4.7-60.1,10.6c-20.9,6.3-38,18-57.1,27.9
		C3684.1,44.1,3687.7,50.1,3692.1,48.5z"/>
	<path class="st13" d="M4210.3,113.4c-3,0.4-5.9-1-7.8-3c-2-0.5-3.9-1.2-5.8-2c-14.2,6.1-30.6,13.4-44.3,6.8
		c-1.4-0.7-2.1-2.8-1.6-4.2c1.2-3.3,3.1-6.3,5.5-8.8c-2.4,1-4.8,2-7.1,2.9c-10,4-19.8,8.2-29.7,12.6c-10.2,2.1-20.8,3.8-31.7,4.7
		c-55,5-110.8-6.4-164.7-15.9c-20.7-3.6-42.8-7.5-65.4-10.6c-3.2-0.4-6.4-0.8-9.6-1.2c-70.1-8.6-144.5-7.9-200.8,33.4
		c-4.2,3.1,0,10.9,4.9,9.2c33.8-12,67.2-19.9,101.8-22.6c15.5-1.2,31.3-1.4,47.4-0.5c42,2.5,83.3,11,124.5,19.2
		c13,2.6,26,5.2,39.1,7.5c25.1,4.5,52.9,8.8,81.5,10.9c-5.4,2.7-10.8,5.5-16.2,8.2c-21.6,1.9-43.4,2.7-65.1,3.6
		c-46.2,1.8-93,3.3-138.2,13.6c-22,5-43.8,12-64.3,21.5c-17.4,8.1-39.9,18.5-48.9,36.3c-2.4,4.8,1.2,10.7,6.8,9.5c0,0,0,0,0.1,0
		c20.9-4.5,39.3-20.3,59.4-28.1c23.8-9.2,48.9-14.5,74.1-18.2c21.9-3.2,44-4.6,66.1-5.5c16.7-0.6,33.4-0.9,50.2-1.3
		c-8,4.4-16,8.8-24,13.3c-42.8,24.4-84.9,50.3-125.5,78.3c-37.3,25.7-81.8,51.5-107.3,89.9c-2.3,3.5,1.3,9.4,5.7,7.8
		c0.7-0.3,1.5-0.6,2.2-0.9c41.2-15.7,76.2-47.5,112.6-71.8c41-27.4,82.8-53.6,125.6-78c19-10.8,38.3-21.3,57.7-31.4
		c6.5-3.4,13.1-6.8,19.7-10.1c14.2-1.1,28.3-2.7,42.2-5c24.1-3.9,47.9-9.6,70.9-18.5c22.4-8.6,43.3-20,62.3-34.6
		c6.6-5.1,15-11.4,22.2-18.7c4.6-0.6,7.5-3.6,8.9-7.3c-6.1,2.7-12.5,4.9-18.9,6.1C4219.9,111.8,4215.1,112.8,4210.3,113.4z"/>
	<path class="st3" d="M4105,54.8c29.5,11.3,58.1,21.7,89.5,22c-0.8,0.6-1.7,1.2-2.5,1.9c-2.3,1.8-3.6,3.9-4.2,6
		c-8.6,3.2-18,6.8-25.3,11.9c-2.3,1.7-4.5,3.5-6.3,5.5c-2.4,2.6-4.2,5.5-5.5,8.8c-0.5,1.4,0.2,3.5,1.6,4.2
		c13.7,6.6,30.1-0.7,44.3-6.8c1.9,0.8,3.8,1.5,5.8,2c1.9,2.1,4.8,3.4,7.8,3c4.8-0.6,9.7-1.6,14.6-3c6.4-1.3,12.8-3.5,18.9-6.1
		c2.7-1.2,5.3-2.4,7.9-3.7c15.1-6.7,29.9-14.7,43.3-21c26.9-12.5,53.7-25.4,80-39.4c-2.8-0.5-5.5-1.6-7.9-3.5
		c-10.5-7.8-12.4-24.5-1.8-33.3c2-1.7,4.6-3,7.3-3.3c0.1,0,0.2,0,0.2-0.1c-1.5-0.4-3.1-0.4-4.7,0c-26.7,6.7-53,14.5-78.3,24.4
		c-13.3,0.1-23.4,6.3-35.1,12.5c-15.6,8.2-32.1,14.7-49.7,17c-31.4,4.1-66.1-3-96.9-8.9c-2.4-0.5-4.3,0.5-5.4,2
		C4100.7,49.3,4101.1,53.3,4105,54.8z"/>
</g>
<g>
	<path class="st12" d="M5273.9,1550.7c-2.6,19.8-20.6,37-34.4,50.3c-16.3,15.7-34.6,29.4-53.8,41.3c-39.4,24.5-83.1,41.1-126.2,57.9
		c-20.2,7.9-40.5,15.7-60.4,24.6c-4.2,4.3-8.4,8.7-12.6,13c27.7-7.3,55.4-12.4,80.6-16.2c13.1-2,26.2-3.8,39.4-5.6
		c25.5-9.7,49.8-22,71.4-35.8c61.6-39.2,109.5-96.9,135.8-164.3c7.1-15.9,10.5-31.5,16.8-48.7c1.7-4.6-5.6-6.7-7.9-2.9
		c-9.9,17.3-25.3,33.1-36.7,49.9c-6.9,10.2-14.1,20.2-21.6,29.9c0,0,0,0,0.1,0C5269.2,1541,5274.5,1545.4,5273.9,1550.7z"/>
	<path class="st12" d="M5229,1420.3c-11.6,44.5-45.2,83.5-72.2,120c-29.3,39.7-60.5,77.9-93.1,114.9c-6,6.8-12.2,13.6-18.4,20.4
		c15.7-5.8,31.4-11.6,47-17.6c27.3-24.9,52.4-52.2,74.9-81.5c27-35,50.7-72.4,69.9-112.1c18.2-37.9,35.4-79.6,39.8-121.8
		c0.1-0.3,0.2-0.6,0.3-1c0.6-1.7,0.5-3.1,0-4.5c-0.3-3.5-3.6-5.3-6.9-4.9c-3.1-0.4-6.5,0.8-8.2,4c-14.2,26.9-28.3,53.6-43.1,80.1
		c0.6-0.5,1.2-1.1,1.8-1.6C5224.7,1411.8,5230,1416.3,5229,1420.3z"/>
	<path class="st12" d="M5371.6,1630.1c-39.8,57.3-109.9,82.2-179,97c-3.3,1.8-6.6,3.5-9.9,5.3c0.4-1.1,0.4-2.2,0.4-3.3
		c-22.3,4.5-44.5,8-65.3,11.3c-54.1,8.6-110.5,16.1-160.9,38.6c-10,4.5-19.5,9.5-28.4,14.8c-7.8,7.4-15.8,14.5-24,21.6
		c-1.9,1.6-3.8,3.3-5.8,5.1c-1.1,2.5-2.5,5-4.2,7.3c26.5-1.4,53.1-1.7,79-3.4c28.3-1.8,56.6-3.7,84.9-6.3
		c35.1-12,69.5-26.1,103.1-41.9c48.5-22.8,95.4-49.6,139.2-80.7c21-14.9,41.5-30.5,61-47.3c16.1-13.8,43.9-32.1,45.9-55
		c0.2-2.2-1-4.2-3.6-4.2c-20.8,0.4-38.7,21.7-54.1,33.8c-20.1,15.8-40.6,31.2-61.8,45.8c-4.4,3-8.8,6-13.3,8.9
		c31.8-13.8,60.8-32.2,88.9-54.5C5368.1,1619.8,5374.6,1625.8,5371.6,1630.1z M5050.4,1778.9c-0.7,0.2-1.3,0.6-2,0.8
		c8.4-3.6,16.7-7.4,24.9-11.3c0.9-0.2,1.9-0.4,2.7-0.7C5067.4,1771.5,5058.9,1775.3,5050.4,1778.9z"/>
	<path class="st12" d="M4998.6,1684.1c11.4-23.4,22.4-47.1,32.9-70.8c17.6-39.3,34-79.1,49.2-119.3c13-34.4,36.2-78.3,32.3-115.6
		c-0.5-4.1-5.4-6.3-8.3-3c-14,14.9-20.2,35.4-27.5,54.2c-7.3,18.7-14.6,37.3-22.2,55.8c-15.6,38.4-32.2,76.5-49.8,114.2
		c-17.6,37.6-36.2,74.8-55.9,111.4c-1.3,2.6-2.8,5.2-4.2,7.7c12.5-6.6,25.3-12.7,38.3-18.5
		C4988.5,1694.8,4993.5,1689.4,4998.6,1684.1z"/>
	<path class="st12" d="M4915.7,1674.2c2,5,5.8,8.6,11.4,9.1c4.7,0.4,10.9-2.1,12.8-6.8c1.3-3.6,2.2-6.8,1.8-10.7
		c-0.2-2.4-0.5-4.7-0.7-7c-0.7-5.3-1.4-11.2-4.7-15.7c-4.7-6.4-12.6-5.7-17,0.7c-2.8,4-3.5,9.8-3.9,14.6
		C4915,1663.4,4913.8,1669.2,4915.7,1674.2z"/>
	<path class="st12" d="M5014.8,1884.1c-1-0.3-2-0.5-3-0.5c-4.8-1.9-10.4-4.3-15.1-2.8c-3.6,0.3-7.1,1.9-7.4,6.1
		c-0.1,2.4,0.5,4.1,1.5,5.7c1.6,4.6,6.5,7.8,10.7,10.6c0.7,0.7,1.4,1.5,2.1,2.2c6.1,5.2,15.6,4.1,19.5-3.2
		C5027,1894.6,5022.5,1886.2,5014.8,1884.1z"/>
	<path class="st13" d="M5355.2,1719.9c-17.1,14-38.9,23-58.1,33.7c-19.2,10.6-38.7,20.1-59.2,27.8c-42,15.7-86.2,25.1-130.6,31
		c-16.2,2.2-32.5,3.9-48.8,5.5c-28.2,2.6-56.5,4.5-84.9,6.3c-25.9,1.7-52.5,2-79,3.4c-5.2,7.3-12.8,13.7-20,19.5
		c0.1,2.2-0.4,4.6-2,7c-0.6,0.8-1.1,1.7-1.7,2.6c29.9-9.9,60.2-9.4,91.8-8.4c4.2,0.1,5.9,3.8,5,6.7c6.7-0.6,13.2-1.2,19.8-1.7
		c49.1-3.5,98.3-7.3,147-15.8c44-7.7,87.2-19.6,128-38.1c18.5-8.4,36.9-17.7,53.4-29.6c17.7-12.8,30.1-29.4,44.9-45
		C5364.2,1721.5,5358.8,1717,5355.2,1719.9z"/>
	<path class="st13" d="M4844.1,1827.4c2.7-1.4,5.9-1,8.4,0.3c2.1-0.2,4.1-0.1,6.1,0c11.4-10.4,24.6-22.6,39.7-20.9
		c1.6,0.2,2.9,2,2.9,3.4c-0.1,3.5-0.9,7-2.3,10.1c1.9-1.7,3.9-3.5,5.8-5.1c8.2-7,16-14.2,24-21.6c9-5.3,18.4-10.4,28.4-14.8
		c50.4-22.6,106.8-30,160.9-38.6c20.7-3.3,42.9-6.9,65.3-11.3c3.2-0.7,6.3-1.3,9.5-2c69.1-14.7,139.2-39.6,179-97
		c3-4.3-3.6-10.3-7.6-7.1c-28,22.4-57.1,40.7-88.9,54.5c-14.3,6.2-29.1,11.5-44.7,15.9c-40.5,11.3-82.3,16.7-124,22.4
		c-13.1,1.8-26.3,3.6-39.4,5.6c-25.2,3.9-52.9,8.9-80.6,16.2c4.2-4.3,8.4-8.7,12.6-13c19.8-8.8,40.2-16.7,60.4-24.6
		c43.1-16.8,86.9-33.4,126.2-57.9c19.2-11.9,37.5-25.6,53.8-41.3c13.8-13.3,31.7-30.5,34.4-50.3c0.7-5.3-4.6-9.7-9.5-6.8
		c0,0,0,0-0.1,0c-18.3,11.1-30.5,32-47,45.9c-19.5,16.5-41.5,29.6-64.1,41.3c-19.7,10.2-40.1,18.7-60.7,26.7
		c-15.6,6-31.3,11.7-47,17.6c6.1-6.8,12.3-13.5,18.4-20.4c32.5-37,63.9-75.2,93.1-114.9c26.9-36.5,60.6-75.3,72.2-120
		c1-4.1-4.3-8.5-7.9-5.5c-0.6,0.5-1.2,1.1-1.8,1.6c-33.8,28.3-56.6,69.7-83.1,104.6c-29.8,39.3-60.8,77.7-93.3,114.7
		c-14.4,16.4-29.3,32.6-44.3,48.5c-5,5.3-10.2,10.7-15.3,16c-13.1,5.7-25.9,11.8-38.3,18.5c-21.5,11.5-42.2,24.7-61,40.6
		c-18.4,15.4-34.4,33-47.6,53c-4.6,7-10.5,15.7-14.9,24.9c-4.2,2.1-5.9,5.8-6,9.8c4.9-4.5,10.2-8.7,15.9-11.9
		C4835.6,1832.1,4839.8,1829.6,4844.1,1827.4z"/>
	<path class="st3" d="M4962.8,1848.5c-31.6-1.1-62-1.6-91.8,8.4c0.6-0.8,1.2-1.7,1.7-2.6c1.6-2.5,2.1-4.9,2-7
		c7.1-5.8,14.8-12.3,20-19.5c1.6-2.4,3.1-4.8,4.2-7.3c1.4-3.2,2.2-6.6,2.3-10.1c0-1.5-1.3-3.2-2.9-3.4
		c-15.1-1.8-28.2,10.5-39.7,20.9c-2.1-0.1-4.1-0.2-6.1,0c-2.5-1.4-5.6-1.7-8.4-0.3c-4.3,2.1-8.6,4.7-12.8,7.6
		c-5.6,3.3-11,7.5-15.9,11.9c-2.2,2-4.2,4-6.3,6.1c-12.1,11.3-23.5,23.6-34.1,34c-21.4,20.6-42.5,41.5-62.8,63.3
		c2.8-0.4,5.7-0.3,8.6,0.7c12.5,4,19.7,19.1,12.6,30.9c-1.3,2.3-3.4,4.3-5.8,5.5c-0.1,0-0.2,0.1-0.2,0.2c1.5-0.1,3.1-0.6,4.4-1.5
		c23.1-15,45.4-31,66.1-48.6c12.5-4.4,20.1-13.6,29.1-23.3c12.1-12.8,25.6-24.4,41.4-32.3c28.4-14.1,63.5-18.7,94.5-23.2
		c2.4-0.3,3.9-1.9,4.5-3.7C4968.6,1852.3,4966.9,1848.7,4962.8,1848.5z"/>
</g>
</svg>
